<?xml version="1.0" encoding="UTF-8"?>
<svg xmlns="http://www.w3.org/2000/svg" xmlns:xlink="http://www.w3.org/1999/xlink" width="100px" height="100px" viewBox="0 0 100 100" version="1.1">
<defs>
<filter id="alpha" filterUnits="objectBoundingBox" x="0%" y="0%" width="100%" height="100%">
  <feColorMatrix type="matrix" in="SourceGraphic" values="0 0 0 0 1 0 0 0 0 1 0 0 0 0 1 0 0 0 1 0"/>
</filter>
<mask id="mask0">
  <g filter="url(#alpha)">
<rect x="0" y="0" width="100" height="100" style="fill:rgb(0%,0%,0%);fill-opacity:0.2;stroke:none;"/>
  </g>
</mask>
<clipPath id="clip1">
  <rect x="0" y="0" width="100" height="100"/>
</clipPath>
<g id="surface5" clip-path="url(#clip1)">
<path style=" stroke:none;fill-rule:nonzero;fill:rgb(50.196078%,32.54902%,10.196078%);fill-opacity:1;" d="M 74.78125 48.214844 C 74.8125 47.609375 74.507812 47.023438 73.96875 46.746094 C 72.683594 46.085938 71.402344 47 71.402344 48.214844 C 71.402344 51.949219 68.375 54.972656 64.644531 54.972656 L 60.140625 54.972656 C 58.273438 54.972656 56.757812 53.460938 56.757812 51.59375 C 56.757812 49.726562 55.246094 48.214844 53.378906 48.214844 L 46.621094 48.214844 C 44.753906 48.214844 43.242188 49.726562 43.242188 51.59375 C 43.242188 53.460938 41.726562 54.972656 39.863281 54.972656 L 35.355469 54.972656 C 31.621094 54.972656 28.59375 51.949219 28.59375 48.214844 C 28.625 47.609375 28.320312 47.023438 27.78125 46.746094 C 26.496094 46.085938 25.214844 47 25.214844 48.214844 C 25.214844 51.550781 23.609375 54.503906 21.125 56.347656 C 25.042969 63.183594 32.441406 70.433594 37.582031 75.023438 C 38.664062 75.992188 39.847656 76.820312 41.105469 77.503906 C 43.816406 78.972656 46.871094 79.757812 50 79.757812 C 54.582031 79.757812 59 78.074219 62.417969 75.023438 C 67.558594 70.4375 74.953125 63.183594 78.871094 56.351562 C 76.390625 54.503906 74.78125 51.550781 74.78125 48.214844 Z M 74.78125 48.214844 "/>
</g>
</defs>
<g id="surface1">
<path style=" stroke:none;fill-rule:nonzero;fill:rgb(67.45098%,72.54902%,34.509804%);fill-opacity:1;" d="M 64.742188 77.332031 C 64.738281 77.332031 64.738281 77.332031 64.738281 77.332031 C 64.371094 77.09375 63.996094 76.863281 63.617188 76.640625 C 59.605469 74.289062 54.960938 72.9375 49.976562 72.9375 C 44.988281 72.9375 40.394531 74.289062 36.382812 76.640625 C 36.003906 76.859375 35.628906 77.09375 35.257812 77.332031 C 35.035156 77.480469 34.8125 77.628906 34.59375 77.78125 C 34.535156 77.824219 34.476562 77.863281 34.417969 77.90625 C 34.242188 78.03125 34.070312 78.15625 33.894531 78.285156 C 33.847656 78.320312 33.800781 78.351562 33.757812 78.386719 C 33.3125 78.722656 32.882812 79.066406 32.460938 79.425781 C 32.429688 79.453125 32.398438 79.480469 32.363281 79.511719 C 32.160156 79.6875 31.957031 79.863281 31.757812 80.046875 C 31.757812 80.050781 31.753906 80.054688 31.75 80.054688 C 31.316406 80.449219 30.902344 80.859375 30.496094 81.28125 C 30.488281 81.289062 30.480469 81.296875 30.472656 81.308594 C 27.386719 84.53125 25.089844 88.511719 23.894531 92.949219 C 31.558594 97.429688 40.480469 100 50 100 C 59.519531 100 68.4375 97.429688 76.105469 92.949219 C 74.355469 86.449219 70.238281 80.917969 64.742188 77.332031 Z M 64.742188 77.332031 "/>
<path style=" stroke:none;fill-rule:nonzero;fill:rgb(58.039216%,61.176471%,32.54902%);fill-opacity:1;" d="M 30.117188 96.042969 C 31.890625 96.78125 33.714844 97.425781 35.582031 97.964844 L 35.582031 85.78125 C 32.851562 88.542969 30.90625 92.085938 30.117188 96.042969 Z M 30.117188 96.042969 "/>
<path style=" stroke:none;fill-rule:nonzero;fill:rgb(58.039216%,61.176471%,32.54902%);fill-opacity:1;" d="M 64.417969 85.78125 L 64.417969 97.964844 C 66.285156 97.425781 68.109375 96.78125 69.882812 96.042969 C 69.09375 92.085938 67.148438 88.542969 64.417969 85.78125 Z M 64.417969 85.78125 "/>
<path style=" stroke:none;fill-rule:nonzero;fill:rgb(58.039216%,61.176471%,32.54902%);fill-opacity:1;" d="M 44.875 88.207031 C 44.875 89.140625 44.117188 89.898438 43.183594 89.898438 C 42.25 89.898438 41.496094 89.140625 41.496094 88.207031 C 41.496094 87.273438 42.25 86.515625 43.183594 86.515625 C 44.117188 86.515625 44.875 87.273438 44.875 88.207031 Z M 44.875 88.207031 "/>
<path style=" stroke:none;fill-rule:nonzero;fill:rgb(58.039216%,61.176471%,32.54902%);fill-opacity:1;" d="M 44.929688 94.964844 C 44.929688 95.898438 44.175781 96.65625 43.242188 96.65625 C 42.308594 96.65625 41.550781 95.898438 41.550781 94.964844 C 41.550781 94.03125 42.308594 93.277344 43.242188 93.277344 C 44.175781 93.277344 44.929688 94.03125 44.929688 94.964844 Z M 44.929688 94.964844 "/>
<path style=" stroke:none;fill-rule:nonzero;fill:rgb(58.039216%,61.176471%,32.54902%);fill-opacity:1;" d="M 66.246094 78.390625 L 66.152344 78.359375 C 65.6875 78.011719 65.210938 77.675781 64.722656 77.355469 C 64.359375 77.121094 63.992188 76.894531 63.617188 76.675781 C 59.648438 74.347656 55.039062 73.003906 50.113281 72.976562 L 50 72.9375 L 50 72.972656 C 49.980469 72.972656 49.964844 72.972656 49.945312 72.972656 C 44.957031 72.972656 40.398438 74.324219 36.382812 76.675781 C 36.203125 76.777344 36.027344 76.886719 35.851562 76.992188 C 35.683594 77.097656 35.515625 77.203125 35.347656 77.3125 C 35.34375 77.316406 35.335938 77.320312 35.332031 77.320312 C 35.332031 77.320312 35.332031 77.324219 35.332031 77.324219 C 35.3125 77.335938 35.296875 77.34375 35.277344 77.355469 C 35.277344 77.359375 35.277344 77.359375 35.277344 77.359375 C 34.761719 77.695312 34.265625 78.050781 33.777344 78.417969 C 33.917969 78.546875 34.066406 78.679688 34.207031 78.804688 C 35.570312 80.023438 37.078125 81.082031 38.691406 81.957031 C 42.152344 83.835938 46.0625 84.828125 50 84.828125 C 54.222656 84.828125 58.324219 83.703125 61.917969 81.613281 C 62.914062 81.035156 64.167969 81.171875 65.046875 81.914062 C 68.894531 85.164062 71.683594 89.628906 72.816406 94.714844 C 73.9375 94.164062 75.035156 93.578125 76.105469 92.949219 C 74.519531 87.058594 70.988281 81.960938 66.246094 78.390625 Z M 66.246094 78.390625 "/>
<path style=" stroke:none;fill-rule:nonzero;fill:rgb(88.235294%,72.156863%,44.705882%);fill-opacity:1;" d="M 95.054688 47.84375 C 94.871094 42.699219 90.769531 38.453125 85.636719 38.101562 C 83.71875 37.96875 81.90625 38.375 80.332031 39.175781 C 80.324219 39.160156 80.320312 39.140625 80.316406 39.121094 L 69.933594 28.449219 L 69.777344 28.292969 C 68.90625 27.433594 67.890625 26.777344 66.796875 26.324219 C 64.125 25.21875 60.988281 25.359375 58.34375 26.863281 C 55.816406 28.304688 52.929688 29.066406 50 29.066406 C 47.070312 29.066406 44.183594 28.304688 41.65625 26.863281 C 37.929688 24.746094 33.230469 25.332031 30.222656 28.292969 L 19.667969 39.175781 L 41.105469 77.503906 C 43.816406 78.972656 46.871094 79.757812 50 79.757812 C 54.582031 79.757812 59 78.074219 62.417969 75.023438 C 67.558594 70.4375 74.953125 63.183594 78.871094 56.351562 C 80.558594 57.609375 82.652344 58.355469 84.921875 58.355469 C 90.644531 58.355469 95.261719 53.613281 95.054688 47.84375 Z M 95.054688 47.84375 "/>
<path style=" stroke:none;fill-rule:nonzero;fill:rgb(92.54902%,80.784314%,57.647059%);fill-opacity:1;" d="M 19.667969 39.175781 C 18.09375 38.375 16.28125 37.96875 14.363281 38.101562 C 9.230469 38.457031 5.128906 42.699219 4.945312 47.84375 C 4.738281 53.613281 9.355469 58.355469 15.078125 58.355469 C 17.34375 58.355469 19.4375 57.609375 21.128906 56.351562 C 25.046875 63.183594 32.441406 70.4375 37.582031 75.023438 C 38.664062 75.992188 39.847656 76.820312 41.105469 77.5 C 45.644531 77.472656 50.019531 75.796875 53.40625 72.769531 C 60.695312 66.261719 72.53125 54.394531 72.53125 45.960938 C 72.53125 45.941406 72.53125 45.921875 72.53125 45.902344 C 72.523438 42.464844 71.109375 39.179688 68.675781 36.75 L 65.039062 33.113281 C 64.171875 32.261719 62.796875 32.105469 61.6875 32.738281 C 58.144531 34.757812 54.101562 35.824219 50 35.824219 C 45.898438 35.824219 41.855469 34.757812 38.3125 32.738281 C 37.203125 32.105469 35.828125 32.261719 34.964844 33.109375 L 25.933594 42.140625 C 25.929688 42.144531 25.921875 42.148438 25.917969 42.15625 C 25.101562 42.960938 23.753906 42.84375 23.046875 41.945312 C 22.136719 40.796875 20.988281 39.847656 19.667969 39.175781 "/>
<path style=" stroke:none;fill-rule:nonzero;fill:rgb(83.529412%,63.137255%,31.372549%);fill-opacity:1;" d="M 88.300781 48.214844 C 88.300781 50.082031 86.789062 51.59375 84.921875 51.59375 C 83.054688 51.59375 81.542969 50.082031 81.542969 48.214844 C 81.542969 46.347656 83.054688 44.835938 84.921875 44.835938 C 86.789062 44.835938 88.300781 46.347656 88.300781 48.214844 Z M 88.300781 48.214844 "/>
<path style=" stroke:none;fill-rule:nonzero;fill:rgb(88.235294%,72.156863%,44.705882%);fill-opacity:1;" d="M 18.457031 48.214844 C 18.457031 50.082031 16.945312 51.59375 15.078125 51.59375 C 13.210938 51.59375 11.699219 50.082031 11.699219 48.214844 C 11.699219 46.347656 13.210938 44.835938 15.078125 44.835938 C 16.945312 44.835938 18.457031 46.347656 18.457031 48.214844 Z M 18.457031 48.214844 "/>
<path style=" stroke:none;fill-rule:nonzero;fill:rgb(27.843137%,27.45098%,25.490196%);fill-opacity:1;" d="M 42.113281 49.90625 C 41.179688 49.90625 40.425781 49.148438 40.425781 48.214844 C 40.425781 47.285156 39.667969 46.523438 38.734375 46.523438 C 37.800781 46.523438 37.042969 47.285156 37.042969 48.214844 C 37.042969 49.148438 36.289062 49.90625 35.355469 49.90625 C 34.421875 49.90625 33.664062 49.148438 33.664062 48.214844 C 33.664062 45.417969 35.9375 43.144531 38.734375 43.144531 C 41.53125 43.144531 43.804688 45.417969 43.804688 48.214844 C 43.804688 49.148438 43.046875 49.90625 42.113281 49.90625 Z M 42.113281 49.90625 "/>
<path style=" stroke:none;fill-rule:nonzero;fill:rgb(27.843137%,27.45098%,25.490196%);fill-opacity:1;" d="M 64.644531 49.90625 C 63.710938 49.90625 62.953125 49.148438 62.953125 48.214844 C 62.953125 47.285156 62.195312 46.523438 61.265625 46.523438 C 60.332031 46.523438 59.574219 47.285156 59.574219 48.214844 C 59.574219 49.148438 58.820312 49.90625 57.886719 49.90625 C 56.953125 49.90625 56.195312 49.148438 56.195312 48.214844 C 56.195312 45.417969 58.46875 43.144531 61.265625 43.144531 C 64.058594 43.144531 66.335938 45.417969 66.335938 48.214844 C 66.335938 49.148438 65.578125 49.90625 64.644531 49.90625 Z M 64.644531 49.90625 "/>
<path style=" stroke:none;fill-rule:nonzero;fill:rgb(73.333333%,58.039216%,18.823529%);fill-opacity:1;" d="M 30.535156 43.949219 C 30.191406 43.949219 29.84375 43.84375 29.542969 43.625 C 28.789062 43.074219 28.621094 42.019531 29.171875 41.265625 C 30.632812 39.257812 32.730469 37.730469 35.078125 36.96875 C 35.964844 36.679688 36.917969 37.164062 37.207031 38.050781 C 37.496094 38.9375 37.011719 39.890625 36.125 40.179688 C 34.449219 40.726562 32.949219 41.816406 31.902344 43.253906 C 31.570312 43.707031 31.058594 43.949219 30.535156 43.949219 Z M 30.535156 43.949219 "/>
<path style=" stroke:none;fill-rule:nonzero;fill:rgb(73.333333%,58.039216%,18.823529%);fill-opacity:1;" d="M 69.464844 43.949219 C 68.941406 43.949219 68.425781 43.707031 68.097656 43.253906 C 67.050781 41.816406 65.550781 40.726562 63.875 40.179688 C 62.988281 39.890625 62.503906 38.9375 62.792969 38.050781 C 63.082031 37.164062 64.03125 36.679688 64.921875 36.96875 C 67.269531 37.730469 69.367188 39.257812 70.828125 41.265625 C 71.378906 42.019531 71.210938 43.074219 70.457031 43.625 C 70.15625 43.84375 69.808594 43.949219 69.464844 43.949219 Z M 69.464844 43.949219 "/>
<path style=" stroke:none;fill-rule:nonzero;fill:rgb(27.843137%,27.45098%,25.490196%);fill-opacity:1;" d="M 50 56.664062 C 47.203125 56.664062 44.929688 54.390625 44.929688 51.59375 C 44.929688 50.660156 45.6875 49.90625 46.621094 49.90625 C 47.554688 49.90625 48.308594 50.660156 48.308594 51.59375 C 48.308594 52.527344 49.066406 53.285156 50 53.285156 C 50.933594 53.285156 51.691406 52.527344 51.691406 51.59375 C 51.691406 50.660156 52.445312 49.90625 53.378906 49.90625 C 54.3125 49.90625 55.070312 50.660156 55.070312 51.59375 C 55.070312 54.390625 52.796875 56.664062 50 56.664062 Z M 50 56.664062 "/>
<path style=" stroke:none;fill-rule:nonzero;fill:rgb(73.333333%,58.039216%,18.823529%);fill-opacity:1;" d="M 84.921875 38.078125 C 84.914062 30.023438 81.691406 22.730469 76.480469 17.453125 C 71.261719 12.167969 64.058594 8.898438 56.097656 8.898438 C 56.097656 3.019531 50.558594 -1.257812 44.972656 0.335938 C 28.414062 5.050781 15.09375 20.035156 15.078125 38.078125 C 16.730469 38.078125 18.289062 38.472656 19.667969 39.175781 L 21.453125 40.082031 C 22.148438 40.433594 22.992188 40.300781 23.542969 39.75 C 23.542969 39.75 30.226562 33.066406 32.453125 30.839844 C 32.5 30.792969 32.546875 30.746094 32.59375 30.699219 C 34.5625 28.761719 37.582031 28.433594 39.984375 29.800781 C 42.9375 31.484375 46.355469 32.445312 50 32.445312 C 53.644531 32.445312 57.0625 31.484375 60.015625 29.800781 C 62.417969 28.433594 65.4375 28.761719 67.40625 30.699219 C 67.453125 30.746094 67.5 30.792969 67.546875 30.839844 C 69.773438 33.066406 76.457031 39.75 76.457031 39.75 C 77.007812 40.300781 77.851562 40.433594 78.546875 40.082031 L 80.328125 39.179688 C 81.707031 38.476562 83.269531 38.078125 84.921875 38.078125 Z M 84.921875 38.078125 "/>
<path style=" stroke:none;fill-rule:nonzero;fill:rgb(85.098039%,70.588235%,22.745098%);fill-opacity:1;" d="M 56.097656 8.898438 L 46.847656 17.480469 C 44.753906 19.421875 45.855469 22.949219 48.691406 23.308594 C 49.339844 23.390625 50.003906 23.433594 50.675781 23.433594 C 56.976562 23.433594 62.414062 19.734375 64.941406 14.390625 C 65.855469 12.457031 64.761719 10.15625 62.679688 9.664062 C 60.566406 9.164062 58.363281 8.898438 56.097656 8.898438 Z M 56.097656 8.898438 "/>
<path style=" stroke:none;fill-rule:nonzero;fill:rgb(85.098039%,70.588235%,22.745098%);fill-opacity:1;" d="M 41.496094 1.496094 C 41.617188 1.5 41.734375 1.507812 41.847656 1.519531 C 46.152344 1.902344 47.917969 7.269531 44.777344 10.230469 L 24.492188 29.347656 C 22.835938 30.910156 20.6875 31.886719 18.410156 31.996094 C 17.414062 32.042969 16.425781 31.921875 15.6875 31.46875 C 18.246094 17.671875 28.597656 6.429688 41.496094 1.496094 Z M 41.496094 1.496094 "/>
<use xlink:href="#surface5" mask="url(#mask0)"/>
</g>
</svg>
