<?xml version="1.0" encoding="UTF-8"?>
<svg xmlns="http://www.w3.org/2000/svg" xmlns:xlink="http://www.w3.org/1999/xlink" width="100px" height="100px" viewBox="0 0 100 100" version="1.1">
<g id="surface1">
<path style=" stroke:none;fill-rule:nonzero;fill:rgb(16.078431%,67.058824%,88.627451%);fill-opacity:1;" d="M 98.007812 78.933594 C 98.007812 66.835938 88.484375 56.96875 76.527344 56.40625 C 84.394531 60.835938 89.707031 69.261719 89.707031 78.933594 Z M 98.007812 78.933594 "/>
<path style=" stroke:none;fill-rule:nonzero;fill:rgb(16.078431%,67.058824%,88.627451%);fill-opacity:1;" d="M 66.855469 52.769531 C 67.050781 52.96875 67.253906 53.160156 67.460938 53.34375 C 70.671875 53.792969 73.691406 54.828125 76.410156 56.339844 C 82.621094 55.851562 87.511719 50.660156 87.511719 44.324219 C 87.511719 37.773438 82.28125 32.445312 75.769531 32.277344 C 76.980469 34.332031 77.679688 36.726562 77.679688 39.285156 C 77.679688 45.886719 73.046875 51.402344 66.855469 52.769531 Z M 66.855469 52.769531 "/>
<path style=" stroke:none;fill-rule:nonzero;fill:rgb(16.078431%,67.058824%,88.627451%);fill-opacity:1;" d="M 63.578125 42.277344 C 64.058594 41.234375 64.425781 40.121094 64.660156 38.964844 C 64.144531 39.992188 63.777344 41.105469 63.578125 42.277344 Z M 63.578125 42.277344 "/>
<path style=" stroke:none;fill-rule:nonzero;fill:rgb(16.078431%,67.058824%,88.627451%);fill-opacity:1;" d="M 10.292969 78.933594 C 10.292969 69.261719 15.605469 60.835938 23.472656 56.40625 C 11.515625 56.96875 1.992188 66.835938 1.992188 78.933594 Z M 10.292969 78.933594 "/>
<path style=" stroke:none;fill-rule:nonzero;fill:rgb(16.078431%,67.058824%,88.627451%);fill-opacity:1;" d="M 33.144531 52.769531 C 26.953125 51.402344 22.320312 45.886719 22.320312 39.285156 C 22.320312 36.726562 23.019531 34.332031 24.230469 32.277344 C 17.71875 32.445312 12.488281 37.773438 12.488281 44.324219 C 12.488281 50.660156 17.378906 55.851562 23.589844 56.339844 C 26.308594 54.828125 29.328125 53.792969 32.539062 53.34375 C 32.746094 53.160156 32.949219 52.96875 33.144531 52.769531 Z M 33.144531 52.769531 "/>
<path style=" stroke:none;fill-rule:nonzero;fill:rgb(16.078431%,67.058824%,88.627451%);fill-opacity:1;" d="M 35.339844 38.964844 C 35.574219 40.121094 35.941406 41.230469 36.421875 42.277344 C 36.222656 41.105469 35.855469 39.992188 35.339844 38.964844 Z M 35.339844 38.964844 "/>
<path style=" stroke:none;fill-rule:nonzero;fill:rgb(74.117647%,80%,83.137255%);fill-opacity:1;" d="M 36.421875 42.277344 C 35.941406 41.234375 35.574219 40.121094 35.339844 38.964844 C 35.152344 38.011719 35.050781 37.023438 35.050781 36.015625 C 35.050781 32.0625 36.589844 28.46875 39.09375 25.796875 C 38.140625 25.585938 37.148438 25.472656 36.128906 25.472656 C 31.0625 25.472656 26.632812 28.207031 24.230469 32.277344 C 23.019531 34.332031 22.320312 36.726562 22.320312 39.285156 C 22.320312 45.886719 26.953125 51.402344 33.144531 52.769531 C 34.109375 52.980469 35.105469 53.09375 36.128906 53.09375 C 39.414062 53.09375 42.429688 51.949219 44.796875 50.035156 C 41.085938 48.65625 38.070312 45.847656 36.421875 42.277344 Z M 36.421875 42.277344 "/>
<path style=" stroke:none;fill-rule:nonzero;fill:rgb(74.117647%,80%,83.137255%);fill-opacity:1;" d="M 23.589844 56.339844 C 23.550781 56.363281 23.511719 56.382812 23.46875 56.40625 C 15.605469 60.835938 10.292969 69.261719 10.292969 78.933594 L 22.03125 78.933594 C 22.03125 70.386719 25.867188 62.742188 31.90625 57.609375 C 34.003906 55.832031 36.363281 54.351562 38.925781 53.246094 C 38.007812 53.148438 37.074219 53.09375 36.128906 53.09375 C 34.910156 53.09375 33.710938 53.183594 32.539062 53.34375 C 29.328125 53.792969 26.308594 54.828125 23.589844 56.339844 Z M 23.589844 56.339844 "/>
<path style=" stroke:none;fill-rule:nonzero;fill:rgb(74.117647%,80%,83.137255%);fill-opacity:1;" d="M 76.527344 56.40625 C 76.488281 56.382812 76.449219 56.363281 76.410156 56.339844 C 73.691406 54.828125 70.671875 53.792969 67.460938 53.34375 C 66.289062 53.183594 65.089844 53.09375 63.867188 53.09375 C 62.925781 53.09375 61.992188 53.148438 61.074219 53.246094 C 63.636719 54.351562 65.996094 55.832031 68.09375 57.609375 C 74.132812 62.742188 77.96875 70.386719 77.96875 78.933594 L 89.707031 78.933594 C 89.707031 69.261719 84.394531 60.835938 76.527344 56.40625 Z M 76.527344 56.40625 "/>
<path style=" stroke:none;fill-rule:nonzero;fill:rgb(74.117647%,80%,83.137255%);fill-opacity:1;" d="M 77.679688 39.285156 C 77.679688 36.726562 76.980469 34.332031 75.769531 32.277344 C 73.367188 28.207031 68.9375 25.472656 63.867188 25.472656 C 62.851562 25.472656 61.859375 25.585938 60.90625 25.796875 C 63.410156 28.46875 64.949219 32.0625 64.949219 36.015625 C 64.949219 37.023438 64.847656 38.011719 64.660156 38.964844 C 64.425781 40.121094 64.058594 41.234375 63.578125 42.277344 C 61.925781 45.847656 58.914062 48.65625 55.203125 50.035156 C 57.570312 51.949219 60.585938 53.097656 63.867188 53.097656 C 64.894531 53.097656 65.890625 52.980469 66.855469 52.769531 C 73.046875 51.402344 77.679688 45.886719 77.679688 39.285156 Z M 77.679688 39.285156 "/>
<path style=" stroke:none;fill-rule:nonzero;fill:rgb(16.078431%,67.058824%,88.627451%);fill-opacity:1;" d="M 61.074219 53.246094 C 57.679688 51.78125 53.933594 50.964844 50 50.964844 C 46.066406 50.964844 42.320312 51.78125 38.925781 53.246094 C 28.988281 57.535156 22.03125 67.421875 22.03125 78.933594 L 77.96875 78.933594 C 77.96875 67.421875 71.011719 57.535156 61.074219 53.246094 Z M 61.074219 53.246094 "/>
<path style=" stroke:none;fill-rule:nonzero;fill:rgb(16.078431%,67.058824%,88.627451%);fill-opacity:1;" d="M 64.949219 36.015625 C 64.949219 32.0625 63.410156 28.46875 60.90625 25.796875 C 58.179688 22.886719 54.300781 21.066406 50 21.066406 C 45.695312 21.066406 41.820312 22.886719 39.09375 25.796875 C 36.585938 28.46875 35.050781 32.0625 35.050781 36.015625 C 35.050781 42.441406 39.105469 47.921875 44.796875 50.035156 C 46.417969 50.636719 48.171875 50.964844 50 50.964844 C 51.828125 50.964844 53.582031 50.636719 55.203125 50.035156 C 60.894531 47.921875 64.949219 42.441406 64.949219 36.015625 Z M 64.949219 36.015625 "/>
<path style=" stroke:none;fill-rule:nonzero;fill:rgb(0%,0%,0%);fill-opacity:1;" d="M 83.582031 55.773438 C 87.160156 53.222656 89.503906 49.042969 89.503906 44.324219 C 89.503906 37.066406 83.96875 31.074219 76.894531 30.351562 C 74.042969 26.207031 69.269531 23.480469 63.867188 23.480469 C 63.085938 23.480469 62.316406 23.542969 61.566406 23.652344 C 58.535156 20.816406 54.46875 19.074219 50 19.074219 C 45.53125 19.074219 41.464844 20.816406 38.433594 23.652344 C 37.683594 23.542969 36.914062 23.480469 36.128906 23.480469 C 30.730469 23.480469 25.957031 26.207031 23.105469 30.351562 C 16.03125 31.074219 10.496094 37.066406 10.496094 44.324219 C 10.496094 49.042969 12.839844 53.222656 16.417969 55.773438 C 6.867188 59.132812 0 68.246094 0 78.933594 C 0 80.03125 0.890625 80.925781 1.992188 80.925781 L 21.714844 80.925781 L 21.714844 80.898438 C 21.816406 80.914062 21.921875 80.925781 22.03125 80.925781 L 77.96875 80.925781 C 78.007812 80.925781 78.046875 80.921875 78.085938 80.917969 L 78.085938 80.925781 L 98.007812 80.925781 C 99.109375 80.925781 100 80.035156 100 78.933594 C 100 68.246094 93.132812 59.132812 83.582031 55.773438 Z M 85.519531 44.324219 C 85.519531 49.417969 81.714844 53.636719 76.796875 54.296875 C 75.4375 53.582031 74.015625 52.972656 72.539062 52.488281 C 76.832031 49.660156 79.671875 44.796875 79.671875 39.285156 C 79.671875 37.777344 79.457031 36.316406 79.058594 34.933594 C 82.832031 36.386719 85.519531 40.046875 85.519531 44.324219 Z M 75.6875 39.285156 C 75.6875 45.800781 70.386719 51.101562 63.871094 51.101562 C 62.246094 51.101562 60.695312 50.773438 59.285156 50.175781 C 63.890625 47.144531 66.941406 41.929688 66.941406 36.015625 C 66.941406 32.910156 66.097656 30 64.632812 27.492188 C 70.792969 27.886719 75.6875 33.023438 75.6875 39.285156 Z M 62.957031 36.015625 C 62.957031 43.160156 57.144531 48.972656 50 48.972656 C 42.855469 48.972656 37.042969 43.160156 37.042969 36.015625 C 37.042969 28.871094 42.855469 23.058594 50 23.058594 C 57.144531 23.058594 62.957031 28.871094 62.957031 36.015625 Z M 35.367188 27.492188 C 33.902344 30 33.058594 32.910156 33.058594 36.015625 C 33.058594 41.929688 36.109375 47.144531 40.714844 50.175781 C 39.304688 50.773438 37.757812 51.101562 36.132812 51.101562 C 29.613281 51.101562 24.3125 45.800781 24.3125 39.285156 C 24.3125 33.023438 29.207031 27.886719 35.367188 27.492188 Z M 14.480469 44.324219 C 14.480469 40.046875 17.167969 36.382812 20.941406 34.933594 C 20.546875 36.316406 20.328125 37.773438 20.328125 39.285156 C 20.328125 44.800781 23.167969 49.660156 27.460938 52.488281 C 25.984375 52.972656 24.5625 53.582031 23.203125 54.296875 C 18.285156 53.636719 14.480469 49.417969 14.480469 44.324219 Z M 15.1875 60.628906 C 11.3125 65.058594 8.816406 70.71875 8.375 76.941406 L 4.078125 76.941406 C 4.765625 69.820312 9.101562 63.753906 15.1875 60.628906 Z M 20.109375 76.941406 L 12.367188 76.941406 C 13.246094 66.363281 21.0625 57.722656 31.238281 55.59375 C 24.898438 60.699219 20.675781 68.328125 20.109375 76.941406 Z M 24.101562 76.941406 C 25.121094 63.546875 36.347656 52.957031 50 52.957031 C 63.652344 52.957031 74.878906 63.546875 75.898438 76.941406 Z M 79.890625 76.941406 C 79.324219 68.328125 75.101562 60.699219 68.761719 55.59375 C 78.9375 57.722656 86.753906 66.363281 87.632812 76.941406 Z M 91.625 76.941406 C 91.183594 70.722656 88.691406 65.058594 84.816406 60.632812 C 90.898438 63.757812 95.234375 69.824219 95.921875 76.941406 Z M 91.625 76.941406 "/>
<path style=" stroke:none;fill-rule:nonzero;fill:rgb(0%,0%,0%);fill-opacity:1;" d="M 37.824219 58.027344 C 32.367188 61.289062 28.386719 66.6875 26.910156 72.84375 C 26.652344 73.914062 27.3125 74.988281 28.378906 75.246094 C 28.535156 75.285156 28.691406 75.300781 28.847656 75.300781 C 29.746094 75.300781 30.5625 74.6875 30.78125 73.773438 C 32.011719 68.65625 35.324219 64.164062 39.867188 61.449219 C 40.8125 60.882812 41.121094 59.660156 40.554688 58.71875 C 39.992188 57.773438 38.769531 57.464844 37.824219 58.027344 Z M 37.824219 58.027344 "/>
<path style=" stroke:none;fill-rule:nonzero;fill:rgb(0%,0%,0%);fill-opacity:1;" d="M 49.972656 54.683594 C 48.117188 54.683594 46.265625 54.902344 44.476562 55.324219 C 43.40625 55.578125 42.742188 56.652344 42.996094 57.722656 C 43.214844 58.640625 44.03125 59.257812 44.933594 59.257812 C 45.085938 59.257812 45.242188 59.238281 45.394531 59.203125 C 46.886719 58.847656 48.425781 58.667969 49.972656 58.667969 C 51.070312 58.667969 51.964844 57.777344 51.964844 56.675781 C 51.964844 55.578125 51.070312 54.683594 49.972656 54.683594 Z M 49.972656 54.683594 "/>
</g>
</svg>
