<?xml version="1.0" encoding="UTF-8"?>
<svg xmlns="http://www.w3.org/2000/svg" xmlns:xlink="http://www.w3.org/1999/xlink" width="100px" height="100px" viewBox="0 0 100 100" version="1.1">
<defs>
<filter id="alpha" filterUnits="objectBoundingBox" x="0%" y="0%" width="100%" height="100%">
  <feColorMatrix type="matrix" in="SourceGraphic" values="0 0 0 0 1 0 0 0 0 1 0 0 0 0 1 0 0 0 1 0"/>
</filter>
<mask id="mask0">
  <g filter="url(#alpha)">
<rect x="0" y="0" width="100" height="100" style="fill:rgb(0%,0%,0%);fill-opacity:0.6;stroke:none;"/>
  </g>
</mask>
<clipPath id="clip1">
  <rect x="0" y="0" width="100" height="100"/>
</clipPath>
<g id="surface5" clip-path="url(#clip1)">
<path style=" stroke:none;fill-rule:nonzero;fill:rgb(7.45098%,81.960784%,72.941176%);fill-opacity:1;" d="M 35.644531 47.742188 C 35.644531 49.878906 33.910156 51.613281 31.773438 51.613281 C 29.636719 51.613281 27.902344 49.878906 27.902344 47.742188 C 27.902344 45.605469 29.636719 43.871094 31.773438 43.871094 C 33.910156 43.871094 35.644531 45.605469 35.644531 47.742188 Z M 35.644531 47.742188 "/>
<path style=" stroke:none;fill-rule:nonzero;fill:rgb(5.882353%,66.666667%,65.098039%);fill-opacity:1;" d="M 29.195312 50.484375 C 27.742188 49.03125 27.742188 46.613281 29.195312 45 C 30.644531 43.546875 33.066406 43.546875 34.675781 45 "/>
</g>
<mask id="mask1">
  <g filter="url(#alpha)">
<rect x="0" y="0" width="100" height="100" style="fill:rgb(0%,0%,0%);fill-opacity:0.6;stroke:none;"/>
  </g>
</mask>
<clipPath id="clip2">
  <rect x="0" y="0" width="100" height="100"/>
</clipPath>
<g id="surface8" clip-path="url(#clip2)">
<path style=" stroke:none;fill-rule:nonzero;fill:rgb(7.45098%,81.960784%,72.941176%);fill-opacity:1;" d="M 29.195312 50.484375 C 27.742188 49.03125 27.742188 46.613281 29.195312 45 C 30.644531 43.546875 33.066406 43.546875 34.675781 45 C 36.128906 46.453125 36.128906 48.871094 34.675781 50.484375 C 33.066406 51.933594 30.644531 51.933594 29.195312 50.484375 Z M 29.195312 50.484375 "/>
<path style=" stroke:none;fill-rule:nonzero;fill:rgb(5.882353%,66.666667%,65.098039%);fill-opacity:1;" d="M 34.515625 50.484375 C 33.066406 51.933594 30.644531 51.933594 29.03125 50.484375 C 27.582031 49.03125 27.582031 46.613281 29.03125 45 "/>
</g>
<mask id="mask2">
  <g filter="url(#alpha)">
<rect x="0" y="0" width="100" height="100" style="fill:rgb(0%,0%,0%);fill-opacity:0.6;stroke:none;"/>
  </g>
</mask>
<clipPath id="clip3">
  <rect x="0" y="0" width="100" height="100"/>
</clipPath>
<g id="surface11" clip-path="url(#clip3)">
<path style=" stroke:none;fill-rule:nonzero;fill:rgb(7.45098%,81.960784%,72.941176%);fill-opacity:1;" d="M 72.097656 47.742188 C 72.097656 49.878906 70.363281 51.613281 68.226562 51.613281 C 66.089844 51.613281 64.355469 49.878906 64.355469 47.742188 C 64.355469 45.605469 66.089844 43.871094 68.226562 43.871094 C 70.363281 43.871094 72.097656 45.605469 72.097656 47.742188 Z M 72.097656 47.742188 "/>
<path style=" stroke:none;fill-rule:nonzero;fill:rgb(5.882353%,66.666667%,65.098039%);fill-opacity:1;" d="M 70.804688 50.484375 C 72.257812 49.03125 72.257812 46.613281 70.804688 45 C 69.355469 43.546875 66.933594 43.546875 65.324219 45 "/>
</g>
<mask id="mask3">
  <g filter="url(#alpha)">
<rect x="0" y="0" width="100" height="100" style="fill:rgb(0%,0%,0%);fill-opacity:0.6;stroke:none;"/>
  </g>
</mask>
<clipPath id="clip4">
  <rect x="0" y="0" width="100" height="100"/>
</clipPath>
<g id="surface14" clip-path="url(#clip4)">
<path style=" stroke:none;fill-rule:nonzero;fill:rgb(7.45098%,81.960784%,72.941176%);fill-opacity:1;" d="M 70.804688 50.484375 C 72.257812 49.03125 72.257812 46.613281 70.804688 45 C 69.355469 43.546875 66.933594 43.546875 65.324219 45 C 63.871094 46.453125 63.871094 48.871094 65.324219 50.484375 C 66.933594 51.933594 69.355469 51.933594 70.804688 50.484375 Z M 70.804688 50.484375 "/>
<path style=" stroke:none;fill-rule:nonzero;fill:rgb(5.882353%,66.666667%,65.098039%);fill-opacity:1;" d="M 65.484375 50.484375 C 66.933594 51.933594 69.355469 51.933594 70.96875 50.484375 C 72.417969 49.03125 72.417969 46.613281 70.96875 45 "/>
</g>
</defs>
<g id="surface1">
<path style=" stroke:none;fill-rule:nonzero;fill:rgb(4.705882%,52.54902%,73.72549%);fill-opacity:1;" d="M 96.128906 52.097656 C 96.128906 77.574219 75.476562 98.226562 50 98.226562 C 24.523438 98.226562 3.871094 77.574219 3.871094 52.097656 C 3.871094 26.621094 24.523438 5.96875 50 5.96875 C 75.476562 5.96875 96.128906 26.621094 96.128906 52.097656 Z M 96.128906 52.097656 "/>
<path style=" stroke:none;fill-rule:nonzero;fill:rgb(3.137255%,42.745098%,62.745098%);fill-opacity:1;" d="M 50 5.96875 C 75.484375 5.96875 96.128906 26.613281 96.128906 52.097656 C 96.128906 77.582031 75.484375 98.226562 50 98.226562 "/>
<path style=" stroke:none;fill-rule:nonzero;fill:rgb(38.431373%,57.647059%,62.745098%);fill-opacity:1;" d="M 70.804688 88.066406 C 70.804688 92.417969 67.257812 95.96875 62.902344 95.96875 L 36.933594 95.96875 C 32.582031 95.96875 29.03125 92.417969 29.03125 88.066406 C 29.03125 83.710938 32.582031 80.160156 36.933594 80.160156 L 62.902344 80.160156 C 67.417969 80.324219 70.804688 83.710938 70.804688 88.066406 Z M 70.804688 88.066406 "/>
<path style=" stroke:none;fill-rule:nonzero;fill:rgb(74.117647%,83.529412%,85.882353%);fill-opacity:1;" d="M 98.386719 100 C 97.742188 91.933594 90.96875 85.484375 82.582031 85.484375 L 17.417969 85.484375 C 9.03125 85.484375 2.257812 91.933594 1.613281 100 Z M 98.386719 100 "/>
<path style=" stroke:none;fill-rule:nonzero;fill:rgb(52.941176%,71.372549%,75.686275%);fill-opacity:1;" d="M 1.613281 100 L 98.386719 100 C 97.742188 91.933594 90.96875 85.484375 82.582031 85.484375 L 17.742188 85.484375 "/>
<path style=" stroke:none;fill-rule:nonzero;fill:rgb(4.313725%,38.823529%,50.980392%);fill-opacity:1;" d="M 59.675781 90 C 59.675781 92.742188 57.097656 95.160156 54.355469 95.160156 L 45.804688 95.160156 C 43.066406 95.160156 40.484375 92.742188 40.484375 90 L 40.484375 34.195312 C 40.484375 31.453125 43.066406 29.03125 45.804688 29.03125 L 54.355469 29.03125 C 57.097656 29.03125 59.675781 31.453125 59.675781 34.195312 Z M 59.675781 90 "/>
<path style=" stroke:none;fill-rule:nonzero;fill:rgb(0%,13.72549%,24.705882%);fill-opacity:1;" d="M 40.324219 34.195312 C 40.324219 31.453125 42.902344 29.03125 45.644531 29.03125 L 54.195312 29.03125 C 56.933594 29.03125 59.515625 31.453125 59.515625 34.195312 L 59.515625 90 C 59.515625 92.742188 56.933594 95.160156 54.195312 95.160156 L 45.160156 95.160156 "/>
<path style=" stroke:none;fill-rule:nonzero;fill:rgb(4.313725%,38.823529%,50.980392%);fill-opacity:1;" d="M 31.453125 42.257812 C 31.453125 36.199219 26.902344 31.289062 21.289062 31.289062 C 15.679688 31.289062 11.128906 36.199219 11.128906 42.257812 C 11.128906 48.316406 15.679688 53.226562 21.289062 53.226562 C 26.902344 53.226562 31.453125 48.316406 31.453125 42.257812 Z M 31.453125 42.257812 "/>
<path style=" stroke:none;fill-rule:nonzero;fill:rgb(0%,13.72549%,24.705882%);fill-opacity:1;" d="M 31.453125 42.257812 C 31.453125 36.199219 27.335938 31.289062 22.257812 31.289062 C 17.179688 31.289062 13.066406 36.199219 13.066406 42.257812 C 13.066406 48.316406 17.179688 53.226562 22.257812 53.226562 C 27.335938 53.226562 31.453125 48.316406 31.453125 42.257812 Z M 31.453125 42.257812 "/>
<path style=" stroke:none;fill-rule:nonzero;fill:rgb(0%,100%,94.901961%);fill-opacity:1;" d="M 16.128906 42.257812 C 16.128906 42.703125 15.769531 43.066406 15.324219 43.066406 C 14.878906 43.066406 14.515625 42.703125 14.515625 42.257812 C 14.515625 41.8125 14.878906 41.453125 15.324219 41.453125 C 15.769531 41.453125 16.128906 41.8125 16.128906 42.257812 Z M 16.128906 42.257812 "/>
<path style=" stroke:none;fill-rule:nonzero;fill:rgb(52.941176%,71.372549%,75.686275%);fill-opacity:1;" d="M 17.742188 46.933594 L 14.675781 45.160156 L 17.742188 43.386719 Z M 17.742188 46.933594 "/>
<path style=" stroke:none;fill-rule:nonzero;fill:rgb(4.313725%,38.823529%,50.980392%);fill-opacity:1;" d="M 88.871094 42.257812 C 88.871094 36.199219 84.320312 31.289062 78.710938 31.289062 C 73.097656 31.289062 68.546875 36.199219 68.546875 42.257812 C 68.546875 48.316406 73.097656 53.226562 78.710938 53.226562 C 84.320312 53.226562 88.871094 48.316406 88.871094 42.257812 Z M 88.871094 42.257812 "/>
<path style=" stroke:none;fill-rule:nonzero;fill:rgb(0%,13.72549%,24.705882%);fill-opacity:1;" d="M 86.933594 42.257812 C 86.933594 36.199219 82.820312 31.289062 77.742188 31.289062 C 72.664062 31.289062 68.546875 36.199219 68.546875 42.257812 C 68.546875 48.316406 72.664062 53.226562 77.742188 53.226562 C 82.820312 53.226562 86.933594 48.316406 86.933594 42.257812 Z M 86.933594 42.257812 "/>
<path style=" stroke:none;fill-rule:nonzero;fill:rgb(0%,100%,94.901961%);fill-opacity:1;" d="M 85.484375 42.257812 C 85.484375 42.703125 85.121094 43.066406 84.675781 43.066406 C 84.230469 43.066406 83.871094 42.703125 83.871094 42.257812 C 83.871094 41.8125 84.230469 41.453125 84.675781 41.453125 C 85.121094 41.453125 85.484375 41.8125 85.484375 42.257812 Z M 85.484375 42.257812 "/>
<path style=" stroke:none;fill-rule:nonzero;fill:rgb(52.941176%,71.372549%,75.686275%);fill-opacity:1;" d="M 82.257812 46.933594 L 85.324219 45.160156 L 82.257812 43.386719 Z M 82.257812 46.933594 "/>
<path style=" stroke:none;fill-rule:nonzero;fill:rgb(74.117647%,83.529412%,85.882353%);fill-opacity:1;" d="M 82.257812 61.289062 C 82.257812 70.644531 79.839844 77.417969 70.644531 77.417969 L 30.804688 77.417969 C 21.453125 77.417969 17.742188 70.644531 17.742188 61.289062 L 17.742188 16.773438 C 17.742188 7.417969 25.644531 0 34.839844 0 L 65.160156 0 C 74.355469 0 82.257812 7.417969 82.257812 16.773438 Z M 82.257812 61.289062 "/>
<path style=" stroke:none;fill-rule:nonzero;fill:rgb(52.941176%,71.372549%,75.686275%);fill-opacity:1;" d="M 35.484375 0 L 65.160156 0 C 74.355469 0 82.257812 7.417969 82.257812 16.773438 L 82.257812 61.289062 C 82.257812 70.644531 79.839844 77.417969 70.644531 77.417969 L 30.644531 77.417969 "/>
<path style=" stroke:none;fill-rule:nonzero;fill:rgb(38.431373%,57.647059%,62.745098%);fill-opacity:1;" d="M 65.324219 0 C 74.515625 0 82.257812 7.417969 82.257812 16.773438 L 82.257812 61.289062 C 82.257812 70.644531 79.839844 77.417969 70.644531 77.417969 "/>
<path style=" stroke:none;fill-rule:nonzero;fill:rgb(38.431373%,57.647059%,62.745098%);fill-opacity:1;" d="M 40.484375 49.675781 C 40.484375 54.488281 36.585938 58.386719 31.773438 58.386719 C 26.964844 58.386719 23.066406 54.488281 23.066406 49.675781 C 23.066406 44.867188 26.964844 40.96875 31.773438 40.96875 C 36.585938 40.96875 40.484375 44.867188 40.484375 49.675781 Z M 40.484375 49.675781 "/>
<path style=" stroke:none;fill-rule:nonzero;fill:rgb(4.313725%,38.823529%,50.980392%);fill-opacity:1;" d="M 40.484375 47.742188 C 40.484375 52.550781 36.585938 56.453125 31.773438 56.453125 C 26.964844 56.453125 23.066406 52.550781 23.066406 47.742188 C 23.066406 42.933594 26.964844 39.03125 31.773438 39.03125 C 36.585938 39.03125 40.484375 42.933594 40.484375 47.742188 Z M 40.484375 47.742188 "/>
<path style=" stroke:none;fill-rule:nonzero;fill:rgb(0%,13.72549%,24.705882%);fill-opacity:1;" d="M 25.804688 41.613281 C 29.195312 38.226562 34.675781 38.226562 38.066406 41.613281 C 41.453125 45 41.453125 50.484375 38.066406 53.871094 "/>
<path style=" stroke:none;fill-rule:nonzero;fill:rgb(7.45098%,81.960784%,72.941176%);fill-opacity:1;" d="M 37.742188 47.742188 C 37.742188 51.039062 35.070312 53.710938 31.773438 53.710938 C 28.476562 53.710938 25.804688 51.039062 25.804688 47.742188 C 25.804688 44.445312 28.476562 41.773438 31.773438 41.773438 C 35.070312 41.773438 37.742188 44.445312 37.742188 47.742188 Z M 37.742188 47.742188 "/>
<path style=" stroke:none;fill-rule:nonzero;fill:rgb(5.882353%,66.666667%,65.098039%);fill-opacity:1;" d="M 31.773438 41.773438 C 35 41.773438 37.742188 44.515625 37.742188 47.742188 C 37.742188 50.96875 35 53.710938 31.773438 53.710938 "/>
<use xlink:href="#surface5" mask="url(#mask0)"/>
<use xlink:href="#surface8" mask="url(#mask1)"/>
<path style=" stroke:none;fill-rule:nonzero;fill:rgb(94.117647%,100%,99.215686%);fill-opacity:1;" d="M 31.613281 46.128906 C 31.613281 46.839844 31.035156 47.417969 30.324219 47.417969 C 29.609375 47.417969 29.03125 46.839844 29.03125 46.128906 C 29.03125 45.417969 29.609375 44.839844 30.324219 44.839844 C 31.035156 44.839844 31.613281 45.417969 31.613281 46.128906 Z M 31.613281 46.128906 "/>
<path style=" stroke:none;fill-rule:nonzero;fill:rgb(94.117647%,100%,99.215686%);fill-opacity:1;" d="M 33.066406 48.546875 C 33.066406 48.636719 32.992188 48.710938 32.902344 48.710938 C 32.8125 48.710938 32.742188 48.636719 32.742188 48.546875 C 32.742188 48.460938 32.8125 48.386719 32.902344 48.386719 C 32.992188 48.386719 33.066406 48.460938 33.066406 48.546875 Z M 33.066406 48.546875 "/>
<path style=" stroke:none;fill-rule:nonzero;fill:rgb(94.117647%,100%,99.215686%);fill-opacity:1;" d="M 34.515625 49.839844 C 34.515625 50.105469 34.300781 50.324219 34.03125 50.324219 C 33.765625 50.324219 33.546875 50.105469 33.546875 49.839844 C 33.546875 49.570312 33.765625 49.355469 34.03125 49.355469 C 34.300781 49.355469 34.515625 49.570312 34.515625 49.839844 Z M 34.515625 49.839844 "/>
<path style=" stroke:none;fill-rule:nonzero;fill:rgb(94.901961%,95.686275%,86.27451%);fill-opacity:1;" d="M 30.96875 40.644531 C 30.96875 40.734375 30.894531 40.804688 30.804688 40.804688 C 30.71875 40.804688 30.644531 40.734375 30.644531 40.644531 C 30.644531 40.554688 30.71875 40.484375 30.804688 40.484375 C 30.894531 40.484375 30.96875 40.554688 30.96875 40.644531 Z M 30.96875 40.644531 "/>
<path style=" stroke:none;fill-rule:nonzero;fill:rgb(94.901961%,95.686275%,86.27451%);fill-opacity:1;" d="M 31.933594 40.644531 C 31.933594 40.734375 31.863281 40.804688 31.773438 40.804688 C 31.683594 40.804688 31.613281 40.734375 31.613281 40.644531 C 31.613281 40.554688 31.683594 40.484375 31.773438 40.484375 C 31.863281 40.484375 31.933594 40.554688 31.933594 40.644531 Z M 31.933594 40.644531 "/>
<path style=" stroke:none;fill-rule:nonzero;fill:rgb(94.901961%,95.686275%,86.27451%);fill-opacity:1;" d="M 33.066406 40.644531 C 33.066406 40.734375 32.992188 40.804688 32.902344 40.804688 C 32.8125 40.804688 32.742188 40.734375 32.742188 40.644531 C 32.742188 40.554688 32.8125 40.484375 32.902344 40.484375 C 32.992188 40.484375 33.066406 40.554688 33.066406 40.644531 Z M 33.066406 40.644531 "/>
<path style=" stroke:none;fill-rule:nonzero;fill:rgb(94.901961%,95.686275%,86.27451%);fill-opacity:1;" d="M 30.96875 55.484375 C 30.96875 55.574219 30.894531 55.644531 30.804688 55.644531 C 30.71875 55.644531 30.644531 55.574219 30.644531 55.484375 C 30.644531 55.394531 30.71875 55.324219 30.804688 55.324219 C 30.894531 55.324219 30.96875 55.394531 30.96875 55.484375 Z M 30.96875 55.484375 "/>
<path style=" stroke:none;fill-rule:nonzero;fill:rgb(94.901961%,95.686275%,86.27451%);fill-opacity:1;" d="M 31.933594 55.484375 C 31.933594 55.574219 31.863281 55.644531 31.773438 55.644531 C 31.683594 55.644531 31.613281 55.574219 31.613281 55.484375 C 31.613281 55.394531 31.683594 55.324219 31.773438 55.324219 C 31.863281 55.324219 31.933594 55.394531 31.933594 55.484375 Z M 31.933594 55.484375 "/>
<path style=" stroke:none;fill-rule:nonzero;fill:rgb(94.901961%,95.686275%,86.27451%);fill-opacity:1;" d="M 33.066406 55.484375 C 33.066406 55.574219 32.992188 55.644531 32.902344 55.644531 C 32.8125 55.644531 32.742188 55.574219 32.742188 55.484375 C 32.742188 55.394531 32.8125 55.324219 32.902344 55.324219 C 32.992188 55.324219 33.066406 55.394531 33.066406 55.484375 Z M 33.066406 55.484375 "/>
<path style=" stroke:none;fill-rule:nonzero;fill:rgb(38.431373%,57.647059%,62.745098%);fill-opacity:1;" d="M 38.710938 29.675781 L 31.453125 35 L 24.195312 29.675781 L 24.195312 25.644531 L 38.710938 28.546875 Z M 38.710938 29.675781 "/>
<path style=" stroke:none;fill-rule:nonzero;fill:rgb(4.313725%,38.823529%,50.980392%);fill-opacity:1;" d="M 38.710938 29.03125 L 24.195312 29.03125 L 24.195312 25.324219 L 38.710938 28.546875 Z M 38.710938 29.03125 "/>
<path style=" stroke:none;fill-rule:nonzero;fill:rgb(0%,13.72549%,24.705882%);fill-opacity:1;" d="M 24.195312 25.324219 L 38.710938 28.546875 L 38.710938 29.03125 L 32.257812 29.03125 "/>
<path style=" stroke:none;fill-rule:nonzero;fill:rgb(74.117647%,83.529412%,85.882353%);fill-opacity:1;" d="M 76.933594 49.675781 C 76.933594 54.488281 73.035156 58.386719 68.226562 58.386719 C 63.414062 58.386719 59.515625 54.488281 59.515625 49.675781 C 59.515625 44.867188 63.414062 40.96875 68.226562 40.96875 C 73.035156 40.96875 76.933594 44.867188 76.933594 49.675781 Z M 76.933594 49.675781 "/>
<path style=" stroke:none;fill-rule:nonzero;fill:rgb(4.313725%,38.823529%,50.980392%);fill-opacity:1;" d="M 76.933594 47.742188 C 76.933594 52.550781 73.035156 56.453125 68.226562 56.453125 C 63.414062 56.453125 59.515625 52.550781 59.515625 47.742188 C 59.515625 42.933594 63.414062 39.03125 68.226562 39.03125 C 73.035156 39.03125 76.933594 42.933594 76.933594 47.742188 Z M 76.933594 47.742188 "/>
<path style=" stroke:none;fill-rule:nonzero;fill:rgb(0%,13.72549%,24.705882%);fill-opacity:1;" d="M 74.195312 41.613281 C 70.804688 38.226562 65.324219 38.226562 61.933594 41.613281 C 58.546875 45 58.546875 50.484375 61.933594 53.871094 "/>
<path style=" stroke:none;fill-rule:nonzero;fill:rgb(7.45098%,81.960784%,72.941176%);fill-opacity:1;" d="M 74.195312 47.742188 C 74.195312 51.039062 71.523438 53.710938 68.226562 53.710938 C 64.929688 53.710938 62.257812 51.039062 62.257812 47.742188 C 62.257812 44.445312 64.929688 41.773438 68.226562 41.773438 C 71.523438 41.773438 74.195312 44.445312 74.195312 47.742188 Z M 74.195312 47.742188 "/>
<path style=" stroke:none;fill-rule:nonzero;fill:rgb(5.882353%,66.666667%,65.098039%);fill-opacity:1;" d="M 68.226562 41.773438 C 65 41.773438 62.257812 44.515625 62.257812 47.742188 C 62.257812 50.96875 65 53.710938 68.226562 53.710938 "/>
<use xlink:href="#surface11" mask="url(#mask2)"/>
<use xlink:href="#surface14" mask="url(#mask3)"/>
<path style=" stroke:none;fill-rule:nonzero;fill:rgb(94.117647%,100%,99.215686%);fill-opacity:1;" d="M 70.96875 46.128906 C 70.96875 46.839844 70.390625 47.417969 69.675781 47.417969 C 68.964844 47.417969 68.386719 46.839844 68.386719 46.128906 C 68.386719 45.417969 68.964844 44.839844 69.675781 44.839844 C 70.390625 44.839844 70.96875 45.417969 70.96875 46.128906 Z M 70.96875 46.128906 "/>
<path style=" stroke:none;fill-rule:nonzero;fill:rgb(94.117647%,100%,99.215686%);fill-opacity:1;" d="M 67.257812 48.546875 C 67.257812 48.636719 67.1875 48.710938 67.097656 48.710938 C 67.007812 48.710938 66.933594 48.636719 66.933594 48.546875 C 66.933594 48.460938 67.007812 48.386719 67.097656 48.386719 C 67.1875 48.386719 67.257812 48.460938 67.257812 48.546875 Z M 67.257812 48.546875 "/>
<path style=" stroke:none;fill-rule:nonzero;fill:rgb(94.117647%,100%,99.215686%);fill-opacity:1;" d="M 66.453125 49.839844 C 66.453125 50.105469 66.234375 50.324219 65.96875 50.324219 C 65.699219 50.324219 65.484375 50.105469 65.484375 49.839844 C 65.484375 49.570312 65.699219 49.355469 65.96875 49.355469 C 66.234375 49.355469 66.453125 49.570312 66.453125 49.839844 Z M 66.453125 49.839844 "/>
<path style=" stroke:none;fill-rule:nonzero;fill:rgb(94.901961%,95.686275%,86.27451%);fill-opacity:1;" d="M 69.355469 40.644531 C 69.355469 40.734375 69.28125 40.804688 69.195312 40.804688 C 69.105469 40.804688 69.03125 40.734375 69.03125 40.644531 C 69.03125 40.554688 69.105469 40.484375 69.195312 40.484375 C 69.28125 40.484375 69.355469 40.554688 69.355469 40.644531 Z M 69.355469 40.644531 "/>
<path style=" stroke:none;fill-rule:nonzero;fill:rgb(94.901961%,95.686275%,86.27451%);fill-opacity:1;" d="M 68.386719 40.644531 C 68.386719 40.734375 68.316406 40.804688 68.226562 40.804688 C 68.136719 40.804688 68.066406 40.734375 68.066406 40.644531 C 68.066406 40.554688 68.136719 40.484375 68.226562 40.484375 C 68.316406 40.484375 68.386719 40.554688 68.386719 40.644531 Z M 68.386719 40.644531 "/>
<path style=" stroke:none;fill-rule:nonzero;fill:rgb(94.901961%,95.686275%,86.27451%);fill-opacity:1;" d="M 67.257812 40.644531 C 67.257812 40.734375 67.1875 40.804688 67.097656 40.804688 C 67.007812 40.804688 66.933594 40.734375 66.933594 40.644531 C 66.933594 40.554688 67.007812 40.484375 67.097656 40.484375 C 67.1875 40.484375 67.257812 40.554688 67.257812 40.644531 Z M 67.257812 40.644531 "/>
<path style=" stroke:none;fill-rule:nonzero;fill:rgb(94.901961%,95.686275%,86.27451%);fill-opacity:1;" d="M 69.355469 55.484375 C 69.355469 55.574219 69.28125 55.644531 69.195312 55.644531 C 69.105469 55.644531 69.03125 55.574219 69.03125 55.484375 C 69.03125 55.394531 69.105469 55.324219 69.195312 55.324219 C 69.28125 55.324219 69.355469 55.394531 69.355469 55.484375 Z M 69.355469 55.484375 "/>
<path style=" stroke:none;fill-rule:nonzero;fill:rgb(94.901961%,95.686275%,86.27451%);fill-opacity:1;" d="M 68.386719 55.484375 C 68.386719 55.574219 68.316406 55.644531 68.226562 55.644531 C 68.136719 55.644531 68.066406 55.574219 68.066406 55.484375 C 68.066406 55.394531 68.136719 55.324219 68.226562 55.324219 C 68.316406 55.324219 68.386719 55.394531 68.386719 55.484375 Z M 68.386719 55.484375 "/>
<path style=" stroke:none;fill-rule:nonzero;fill:rgb(94.901961%,95.686275%,86.27451%);fill-opacity:1;" d="M 67.257812 55.484375 C 67.257812 55.574219 67.1875 55.644531 67.097656 55.644531 C 67.007812 55.644531 66.933594 55.574219 66.933594 55.484375 C 66.933594 55.394531 67.007812 55.324219 67.097656 55.324219 C 67.1875 55.324219 67.257812 55.394531 67.257812 55.484375 Z M 67.257812 55.484375 "/>
<path style=" stroke:none;fill-rule:nonzero;fill:rgb(38.431373%,57.647059%,62.745098%);fill-opacity:1;" d="M 61.289062 29.675781 L 68.546875 35 L 75.804688 29.675781 L 75.804688 25.644531 L 61.289062 28.546875 Z M 61.289062 29.675781 "/>
<path style=" stroke:none;fill-rule:nonzero;fill:rgb(4.313725%,38.823529%,50.980392%);fill-opacity:1;" d="M 61.289062 29.03125 L 75.804688 29.03125 L 75.804688 25.324219 L 61.289062 28.546875 Z M 61.289062 29.03125 "/>
<path style=" stroke:none;fill-rule:nonzero;fill:rgb(0%,13.72549%,24.705882%);fill-opacity:1;" d="M 75.804688 25.324219 L 61.289062 28.546875 L 61.289062 29.03125 L 67.742188 29.03125 "/>
<path style=" stroke:none;fill-rule:nonzero;fill:rgb(38.431373%,57.647059%,62.745098%);fill-opacity:1;" d="M 57.742188 64.515625 C 57.742188 66.289062 56.289062 67.742188 54.515625 69.355469 L 45.324219 69.355469 C 43.546875 67.742188 42.097656 66.289062 42.097656 64.515625 C 42.097656 62.742188 43.546875 61.289062 45.324219 59.675781 L 54.515625 59.675781 C 56.289062 61.289062 57.742188 62.742188 57.742188 64.515625 Z M 57.742188 64.515625 "/>
<path style=" stroke:none;fill-rule:nonzero;fill:rgb(0%,100%,94.901961%);fill-opacity:1;" d="M 58.066406 64.515625 C 58.066406 66.289062 56.613281 67.742188 54.839844 67.742188 L 45.160156 67.742188 C 43.386719 67.742188 41.933594 66.289062 41.933594 64.515625 C 41.933594 62.742188 43.386719 61.289062 45.160156 61.289062 L 54.839844 61.289062 C 56.613281 61.289062 58.066406 62.742188 58.066406 64.515625 Z M 58.066406 64.515625 "/>
<path style=" stroke:none;fill-rule:nonzero;fill:rgb(0%,100%,94.901961%);fill-opacity:1;" d="M 48.386719 17.742188 L 51.613281 17.742188 L 51.613281 20.96875 L 48.386719 20.96875 Z M 48.386719 17.742188 "/>
<path style=" stroke:none;fill-rule:nonzero;fill:rgb(0%,100%,94.901961%);fill-opacity:1;" d="M 51.613281 8.066406 L 51.613281 4.515625 C 51.613281 3.871094 50.644531 3.386719 50 3.386719 C 49.355469 3.386719 48.386719 3.871094 48.386719 4.515625 L 48.386719 8.066406 Z M 51.613281 8.066406 "/>
<path style=" stroke:none;fill-rule:nonzero;fill:rgb(0%,100%,94.901961%);fill-opacity:1;" d="M 48.386719 11.289062 L 51.613281 11.289062 L 51.613281 14.515625 L 48.386719 14.515625 Z M 48.386719 11.289062 "/>
<path style=" stroke:none;fill-rule:nonzero;fill:rgb(0%,100%,94.901961%);fill-opacity:1;" d="M 48.386719 24.195312 L 51.613281 24.195312 L 51.613281 27.417969 L 48.386719 27.417969 Z M 48.386719 24.195312 "/>
<path style=" stroke:none;fill-rule:nonzero;fill:rgb(0%,84.705882%,86.666667%);fill-opacity:1;" d="M 58.066406 64.515625 C 58.066406 62.902344 57.257812 61.289062 54.839844 61.289062 L 45.160156 61.289062 C 43.066406 61.289062 42.097656 62.902344 41.933594 64.515625 Z M 58.066406 64.515625 "/>
<path style=" stroke:none;fill-rule:nonzero;fill:rgb(74.117647%,83.529412%,85.882353%);fill-opacity:1;" d="M 40.644531 58.871094 C 40.644531 60.324219 39.515625 61.289062 38.066406 61.289062 L 25.96875 61.289062 C 24.515625 61.289062 23.386719 60.324219 23.386719 58.871094 C 23.386719 57.417969 24.515625 56.453125 25.96875 56.453125 L 38.066406 56.453125 C 39.515625 56.453125 40.644531 57.417969 40.644531 58.871094 Z M 40.644531 58.871094 "/>
<path style=" stroke:none;fill-rule:nonzero;fill:rgb(38.431373%,57.647059%,62.745098%);fill-opacity:1;" d="M 76.613281 58.871094 C 76.613281 60.324219 75.484375 61.289062 74.03125 61.289062 L 61.933594 61.289062 C 60.484375 61.289062 59.355469 60.324219 59.355469 58.871094 C 59.355469 57.417969 60.484375 56.453125 61.933594 56.453125 L 74.03125 56.453125 C 75.484375 56.453125 76.613281 57.417969 76.613281 58.871094 Z M 76.613281 58.871094 "/>
<path style=" stroke:none;fill-rule:nonzero;fill:rgb(0%,100%,94.901961%);fill-opacity:1;" d="M 48.386719 29.03125 L 51.613281 29.03125 L 51.613281 35.484375 L 48.386719 35.484375 Z M 48.386719 29.03125 "/>
<path style=" stroke:none;fill-rule:nonzero;fill:rgb(0%,100%,94.901961%);fill-opacity:1;" d="M 48.386719 40.324219 L 48.386719 38.226562 C 48.386719 37.582031 49.355469 37.097656 50 37.097656 C 50.644531 37.097656 51.613281 37.582031 51.613281 38.226562 L 51.613281 40.324219 L 55.324219 40.324219 L 50 34.355469 L 44.675781 40.324219 Z M 48.386719 40.324219 "/>
<path style=" stroke:none;fill-rule:nonzero;fill:rgb(74.117647%,83.529412%,85.882353%);fill-opacity:1;" d="M 37.582031 56.453125 L 49.839844 44.355469 L 40.324219 60 Z M 37.582031 56.453125 "/>
<path style=" stroke:none;fill-rule:nonzero;fill:rgb(38.431373%,57.647059%,62.745098%);fill-opacity:1;" d="M 62.257812 56.453125 L 50.160156 44.355469 L 59.675781 60 Z M 62.257812 56.453125 "/>
<path style=" stroke:none;fill-rule:nonzero;fill:rgb(52.941176%,71.372549%,75.686275%);fill-opacity:1;" d="M 58.871094 81.453125 C 58.871094 81.613281 58.710938 81.773438 58.546875 81.773438 L 41.453125 81.773438 C 41.289062 81.773438 41.128906 81.613281 41.128906 81.453125 C 41.128906 81.289062 41.289062 81.128906 41.453125 81.128906 L 58.546875 81.128906 C 58.710938 80.96875 58.871094 81.128906 58.871094 81.453125 Z M 58.871094 81.453125 "/>
<path style=" stroke:none;fill-rule:nonzero;fill:rgb(52.941176%,71.372549%,75.686275%);fill-opacity:1;" d="M 58.871094 85.804688 C 58.871094 85.96875 58.710938 86.128906 58.546875 86.128906 L 41.453125 86.128906 C 41.289062 86.128906 41.128906 85.96875 41.128906 85.804688 C 41.128906 85.644531 41.289062 85.484375 41.453125 85.484375 L 58.546875 85.484375 C 58.710938 85.484375 58.871094 85.484375 58.871094 85.804688 Z M 58.871094 85.804688 "/>
<path style=" stroke:none;fill-rule:nonzero;fill:rgb(52.941176%,71.372549%,75.686275%);fill-opacity:1;" d="M 58.871094 90.160156 C 58.871094 90.324219 58.710938 90.484375 58.546875 90.484375 L 41.453125 90.484375 C 41.289062 90.484375 41.128906 90.324219 41.128906 90.160156 C 41.128906 90 41.289062 89.839844 41.453125 89.839844 L 58.546875 89.839844 C 58.710938 89.839844 58.871094 89.839844 58.871094 90.160156 Z M 58.871094 90.160156 "/>
<path style=" stroke:none;fill-rule:nonzero;fill:rgb(0%,100%,94.901961%);fill-opacity:1;" d="M 38.871094 89.515625 C 38.871094 90 38.546875 90.324219 38.066406 90.324219 L 25 90.324219 C 24.515625 90.324219 24.195312 90 24.195312 89.515625 C 24.195312 89.03125 24.515625 88.710938 25 88.710938 L 38.066406 88.710938 C 38.546875 88.710938 38.871094 89.03125 38.871094 89.515625 Z M 38.871094 89.515625 "/>
<path style=" stroke:none;fill-rule:nonzero;fill:rgb(0%,100%,94.901961%);fill-opacity:1;" d="M 25.324219 89.03125 C 25.644531 89.355469 25.804688 89.675781 25.644531 89.839844 L 20.96875 94.675781 C 20.804688 94.839844 20.484375 94.675781 20.160156 94.355469 C 19.839844 94.03125 19.675781 93.710938 19.839844 93.546875 L 24.515625 88.871094 C 24.675781 88.710938 25.160156 88.871094 25.324219 89.03125 Z M 25.324219 89.03125 "/>
<path style=" stroke:none;fill-rule:nonzero;fill:rgb(0%,100%,94.901961%);fill-opacity:1;" d="M 19.515625 96.773438 C 19.515625 97.574219 18.867188 98.226562 18.066406 98.226562 C 17.261719 98.226562 16.613281 97.574219 16.613281 96.773438 C 16.613281 95.972656 17.261719 95.324219 18.066406 95.324219 C 18.867188 95.324219 19.515625 95.972656 19.515625 96.773438 Z M 19.515625 96.773438 "/>
<path style=" stroke:none;fill-rule:nonzero;fill:rgb(0%,100%,94.901961%);fill-opacity:1;" d="M 75.804688 89.515625 C 75.804688 89.03125 75.484375 88.710938 75 88.710938 L 62.097656 88.710938 C 61.613281 88.710938 61.289062 89.03125 61.289062 89.515625 C 61.289062 90 61.613281 90.324219 62.097656 90.324219 L 75 90.324219 C 75.484375 90.324219 75.804688 90 75.804688 89.515625 Z M 75.804688 89.515625 "/>
<path style=" stroke:none;fill-rule:nonzero;fill:rgb(0%,100%,94.901961%);fill-opacity:1;" d="M 74.675781 89.03125 C 74.355469 89.355469 74.195312 89.675781 74.355469 89.839844 L 79.03125 94.515625 C 79.195312 94.675781 79.515625 94.515625 79.839844 94.195312 C 80.160156 93.871094 80.324219 93.546875 80.160156 93.386719 L 75.484375 88.710938 C 75.324219 88.710938 74.839844 88.871094 74.675781 89.03125 Z M 74.675781 89.03125 "/>
<path style=" stroke:none;fill-rule:nonzero;fill:rgb(0%,100%,94.901961%);fill-opacity:1;" d="M 83.386719 96.773438 C 83.386719 97.574219 82.738281 98.226562 81.933594 98.226562 C 81.132812 98.226562 80.484375 97.574219 80.484375 96.773438 C 80.484375 95.972656 81.132812 95.324219 81.933594 95.324219 C 82.738281 95.324219 83.386719 95.972656 83.386719 96.773438 Z M 83.386719 96.773438 "/>
</g>
</svg>
