<?xml version="1.0" encoding="UTF-8"?>
<svg xmlns="http://www.w3.org/2000/svg" xmlns:xlink="http://www.w3.org/1999/xlink" width="100px" height="100px" viewBox="0 0 100 100" version="1.1">
<g id="surface1">
<path style=" stroke:none;fill-rule:nonzero;fill:rgb(74.509804%,60.784314%,50.980392%);fill-opacity:1;" d="M 32.757812 55.171875 L 18.964844 55.171875 L 18.964844 58.269531 L 13.792969 70.335938 L 13.792969 79.3125 L 17.242188 79.3125 L 17.242188 71.042969 L 21.085938 62.070312 L 32.757812 62.070312 Z M 32.757812 55.171875 "/>
<path style=" stroke:none;fill-rule:nonzero;fill:rgb(82.352941%,68.627451%,56.862745%);fill-opacity:1;" d="M 55.171875 81.035156 L 58.621094 81.035156 L 58.621094 94.828125 L 55.171875 94.828125 Z M 55.171875 81.035156 "/>
<path style=" stroke:none;fill-rule:nonzero;fill:rgb(74.509804%,60.784314%,50.980392%);fill-opacity:1;" d="M 53.449219 96.550781 L 53.449219 91.378906 C 53.449219 90.425781 54.21875 89.65625 55.171875 89.65625 L 58.621094 89.65625 C 59.574219 89.65625 60.34375 90.425781 60.34375 91.378906 L 60.34375 93.101562 L 67.242188 96.550781 L 67.242188 100 L 53.449219 100 C 52.496094 100 51.722656 99.226562 51.722656 98.277344 C 51.722656 97.324219 52.496094 96.550781 53.449219 96.550781 Z M 53.449219 96.550781 "/>
<path style=" stroke:none;fill-rule:nonzero;fill:rgb(82.352941%,68.627451%,56.862745%);fill-opacity:1;" d="M 60.34375 100 L 67.242188 100 C 68.195312 100 68.964844 99.226562 68.964844 98.277344 C 68.964844 97.324219 68.195312 96.550781 67.242188 96.550781 L 60.34375 96.550781 C 59.394531 96.550781 58.621094 97.324219 58.621094 98.277344 C 58.621094 99.226562 59.390625 100 60.34375 100 Z M 60.34375 100 "/>
<path style=" stroke:none;fill-rule:nonzero;fill:rgb(82.352941%,68.627451%,56.862745%);fill-opacity:1;" d="M 41.378906 81.035156 L 44.828125 81.035156 L 44.828125 94.828125 L 41.378906 94.828125 Z M 41.378906 81.035156 "/>
<path style=" stroke:none;fill-rule:nonzero;fill:rgb(74.509804%,60.784314%,50.980392%);fill-opacity:1;" d="M 36.207031 75.863281 L 36.207031 79.792969 C 36.207031 80.535156 36.683594 81.191406 37.386719 81.425781 L 44.28125 83.726562 C 45.398438 84.097656 46.550781 83.265625 46.550781 82.089844 L 46.550781 81.035156 L 53.449219 81.035156 L 53.449219 82.089844 C 53.449219 83.265625 54.601562 84.097656 55.71875 83.726562 L 62.613281 81.425781 C 63.316406 81.191406 63.792969 80.535156 63.792969 79.792969 L 63.792969 75.863281 Z M 36.207031 75.863281 "/>
<path style=" stroke:none;fill-rule:nonzero;fill:rgb(74.509804%,60.784314%,50.980392%);fill-opacity:1;" d="M 81.035156 58.269531 L 81.035156 55.171875 L 67.242188 55.171875 L 67.242188 62.070312 L 78.914062 62.070312 L 82.757812 71.042969 L 82.757812 79.3125 L 86.207031 79.3125 L 86.207031 70.335938 Z M 81.035156 58.269531 "/>
<path style=" stroke:none;fill-rule:nonzero;fill:rgb(82.352941%,68.627451%,56.862745%);fill-opacity:1;" d="M 83.621094 58.621094 C 83.621094 61 81.691406 62.929688 79.308594 62.929688 C 76.929688 62.929688 75 61 75 58.621094 C 75 56.238281 76.929688 54.308594 79.308594 54.308594 C 81.691406 54.308594 83.621094 56.238281 83.621094 58.621094 Z M 83.621094 58.621094 "/>
<path style=" stroke:none;fill-rule:nonzero;fill:rgb(82.352941%,68.627451%,56.862745%);fill-opacity:1;" d="M 87.929688 70.691406 C 87.929688 72.59375 86.386719 74.136719 84.484375 74.136719 C 82.578125 74.136719 81.035156 72.59375 81.035156 70.691406 C 81.035156 68.785156 82.578125 67.242188 84.484375 67.242188 C 86.386719 67.242188 87.929688 68.785156 87.929688 70.691406 Z M 87.929688 70.691406 "/>
<path style=" stroke:none;fill-rule:nonzero;fill:rgb(74.509804%,60.784314%,50.980392%);fill-opacity:1;" d="M 81.035156 58.621094 C 81.035156 59.574219 80.261719 60.34375 79.308594 60.34375 C 78.359375 60.34375 77.585938 59.574219 77.585938 58.621094 C 77.585938 57.667969 78.359375 56.898438 79.308594 56.898438 C 80.261719 56.898438 81.035156 57.667969 81.035156 58.621094 Z M 81.035156 58.621094 "/>
<path style=" stroke:none;fill-rule:nonzero;fill:rgb(92.941176%,77.647059%,64.705882%);fill-opacity:1;" d="M 81.035156 79.308594 L 87.929688 79.308594 L 87.929688 84.484375 L 81.035156 84.484375 Z M 81.035156 79.308594 "/>
<path style=" stroke:none;fill-rule:nonzero;fill:rgb(82.352941%,68.627451%,56.862745%);fill-opacity:1;" d="M 81.035156 87.929688 C 81.988281 87.929688 82.757812 87.160156 82.757812 86.207031 L 82.757812 82.757812 C 82.757812 81.808594 83.53125 81.035156 84.484375 81.035156 C 85.433594 81.035156 86.207031 81.808594 86.207031 82.757812 L 86.207031 86.207031 C 86.207031 87.160156 86.976562 87.929688 87.929688 87.929688 C 88.882812 87.929688 89.65625 87.160156 89.65625 86.207031 L 89.65625 82.757812 C 89.65625 79.90625 87.335938 77.585938 84.484375 77.585938 C 81.632812 77.585938 79.3125 79.90625 79.3125 82.757812 L 79.3125 86.207031 C 79.308594 87.160156 80.082031 87.929688 81.035156 87.929688 Z M 81.035156 87.929688 "/>
<path style=" stroke:none;fill-rule:nonzero;fill:rgb(82.352941%,68.627451%,56.862745%);fill-opacity:1;" d="M 34.265625 13.792969 L 31.25 13.792969 C 31.132812 13.792969 31.035156 13.695312 31.035156 13.578125 L 31.035156 3.664062 C 31.035156 3.542969 31.132812 3.449219 31.25 3.449219 L 34.265625 3.449219 C 34.386719 3.449219 34.484375 3.542969 34.484375 3.664062 L 34.484375 13.578125 C 34.484375 13.695312 34.386719 13.792969 34.265625 13.792969 Z M 34.265625 13.792969 "/>
<path style=" stroke:none;fill-rule:nonzero;fill:rgb(100%,87.843137%,80%);fill-opacity:1;" d="M 36.207031 3.449219 C 36.207031 5.351562 34.664062 6.898438 32.757812 6.898438 C 30.855469 6.898438 29.308594 5.351562 29.308594 3.449219 C 29.308594 1.542969 30.855469 0 32.757812 0 C 34.664062 0 36.207031 1.542969 36.207031 3.449219 Z M 36.207031 3.449219 "/>
<path style=" stroke:none;fill-rule:nonzero;fill:rgb(100%,83.921569%,70.196078%);fill-opacity:1;" d="M 31.035156 3.449219 C 31.035156 1.84375 32.136719 0.507812 33.621094 0.121094 C 33.34375 0.0507812 33.058594 0 32.757812 0 C 30.855469 0 29.308594 1.542969 29.308594 3.449219 C 29.308594 5.351562 30.855469 6.898438 32.757812 6.898438 C 33.058594 6.898438 33.34375 6.847656 33.621094 6.773438 C 32.136719 6.390625 31.035156 5.054688 31.035156 3.449219 Z M 31.035156 3.449219 "/>
<path style=" stroke:none;fill-rule:nonzero;fill:rgb(82.352941%,68.627451%,56.862745%);fill-opacity:1;" d="M 68.75 13.792969 L 65.734375 13.792969 C 65.613281 13.792969 65.515625 13.695312 65.515625 13.578125 L 65.515625 3.664062 C 65.515625 3.542969 65.613281 3.449219 65.734375 3.449219 L 68.75 3.449219 C 68.867188 3.449219 68.964844 3.542969 68.964844 3.664062 L 68.964844 13.578125 C 68.964844 13.695312 68.867188 13.792969 68.75 13.792969 Z M 68.75 13.792969 "/>
<path style=" stroke:none;fill-rule:nonzero;fill:rgb(100%,87.843137%,80%);fill-opacity:1;" d="M 70.691406 3.449219 C 70.691406 5.351562 69.144531 6.898438 67.242188 6.898438 C 65.335938 6.898438 63.792969 5.351562 63.792969 3.449219 C 63.792969 1.542969 65.335938 0 67.242188 0 C 69.144531 0 70.691406 1.542969 70.691406 3.449219 Z M 70.691406 3.449219 "/>
<path style=" stroke:none;fill-rule:nonzero;fill:rgb(100%,83.921569%,70.196078%);fill-opacity:1;" d="M 65.515625 3.449219 C 65.515625 1.84375 66.617188 0.507812 68.101562 0.121094 C 67.828125 0.0507812 67.539062 0 67.242188 0 C 65.335938 0 63.792969 1.542969 63.792969 3.449219 C 63.792969 5.351562 65.335938 6.898438 67.242188 6.898438 C 67.539062 6.898438 67.828125 6.847656 68.101562 6.773438 C 66.617188 6.390625 65.515625 5.054688 65.515625 3.449219 Z M 65.515625 3.449219 "/>
<path style=" stroke:none;fill-rule:nonzero;fill:rgb(82.352941%,68.627451%,56.862745%);fill-opacity:1;" d="M 62.070312 77.585938 L 37.929688 77.585938 C 35.074219 77.585938 32.757812 75.269531 32.757812 72.414062 L 32.757812 65.085938 L 67.242188 65.085938 L 67.242188 72.414062 C 67.242188 75.269531 64.925781 77.585938 62.070312 77.585938 Z M 62.070312 77.585938 "/>
<path style=" stroke:none;fill-rule:nonzero;fill:rgb(100%,91.764706%,87.843137%);fill-opacity:1;" d="M 70.691406 51.722656 L 29.308594 51.722656 C 25.5 51.722656 22.414062 48.636719 22.414062 44.828125 L 22.414062 17.242188 C 22.414062 13.433594 25.5 10.34375 29.308594 10.34375 L 70.691406 10.34375 C 74.5 10.34375 77.585938 13.433594 77.585938 17.242188 L 77.585938 44.828125 C 77.585938 48.636719 74.5 51.722656 70.691406 51.722656 Z M 70.691406 51.722656 "/>
<path style=" stroke:none;fill-rule:nonzero;fill:rgb(100%,87.843137%,80%);fill-opacity:1;" d="M 50 43.101562 C 39.738281 43.101562 30.234375 40.695312 22.414062 36.601562 L 22.414062 44.828125 C 22.414062 48.636719 25.5 51.722656 29.308594 51.722656 L 70.691406 51.722656 C 74.5 51.722656 77.585938 48.636719 77.585938 44.828125 L 77.585938 36.601562 C 69.765625 40.695312 60.261719 43.101562 50 43.101562 Z M 50 43.101562 "/>
<path style=" stroke:none;fill-rule:nonzero;fill:rgb(43.137255%,25.490196%,25.490196%);fill-opacity:1;" d="M 38.792969 34.484375 C 37.363281 34.484375 36.207031 33.324219 36.207031 31.898438 L 36.207031 30.171875 C 36.207031 28.746094 37.363281 27.585938 38.792969 27.585938 C 40.222656 27.585938 41.378906 28.746094 41.378906 30.171875 L 41.378906 31.898438 C 41.378906 33.324219 40.222656 34.484375 38.792969 34.484375 Z M 38.792969 34.484375 "/>
<path style=" stroke:none;fill-rule:nonzero;fill:rgb(43.137255%,25.490196%,25.490196%);fill-opacity:1;" d="M 61.207031 34.484375 C 59.777344 34.484375 58.621094 33.324219 58.621094 31.898438 L 58.621094 30.171875 C 58.621094 28.746094 59.777344 27.585938 61.207031 27.585938 C 62.636719 27.585938 63.792969 28.746094 63.792969 30.171875 L 63.792969 31.898438 C 63.792969 33.324219 62.636719 34.484375 61.207031 34.484375 Z M 61.207031 34.484375 "/>
<path style=" stroke:none;fill-rule:nonzero;fill:rgb(100%,83.921569%,70.196078%);fill-opacity:1;" d="M 50 43.101562 C 39.738281 43.101562 30.234375 40.695312 22.414062 36.601562 L 22.414062 39.65625 C 30.234375 43.75 39.742188 46.15625 50 46.15625 C 60.257812 46.15625 69.765625 43.75 77.585938 39.65625 L 77.585938 36.601562 C 69.765625 40.695312 60.261719 43.101562 50 43.101562 Z M 50 43.101562 "/>
<path style=" stroke:none;fill-rule:nonzero;fill:rgb(100%,83.921569%,70.196078%);fill-opacity:1;" d="M 25.863281 17.242188 L 25.863281 31.035156 C 25.863281 31.988281 26.632812 32.757812 27.585938 32.757812 L 29.3125 32.757812 C 30.261719 32.757812 31.035156 31.988281 31.035156 31.035156 L 31.035156 30.507812 C 31.035156 26.453125 33.996094 22.835938 38.03125 22.449219 C 42.660156 22.007812 46.550781 25.636719 46.550781 30.171875 L 46.550781 31.035156 C 46.550781 31.988281 47.324219 32.757812 48.277344 32.757812 L 51.722656 32.757812 C 52.675781 32.757812 53.449219 31.988281 53.449219 31.035156 L 53.449219 30.507812 C 53.449219 26.453125 56.410156 22.835938 60.445312 22.449219 C 65.074219 22.007812 68.964844 25.636719 68.964844 30.171875 L 68.964844 31.035156 C 68.964844 31.988281 69.738281 32.757812 70.691406 32.757812 L 72.414062 32.757812 C 73.367188 32.757812 74.136719 31.988281 74.136719 31.035156 L 74.136719 17.242188 C 74.136719 15.335938 72.59375 13.792969 70.691406 13.792969 L 29.308594 13.792969 C 27.40625 13.792969 25.863281 15.335938 25.863281 17.242188 Z M 25.863281 17.242188 "/>
<path style=" stroke:none;fill-rule:nonzero;fill:rgb(92.941176%,77.647059%,64.705882%);fill-opacity:1;" d="M 29.308594 56.898438 L 29.308594 63.792969 C 29.308594 65.699219 30.855469 67.242188 32.757812 67.242188 L 43.328125 67.242188 C 44.144531 67.242188 44.796875 67.828125 45.011719 68.617188 C 45.613281 70.804688 47.621094 72.414062 50 72.414062 C 52.378906 72.414062 54.386719 70.804688 54.988281 68.617188 C 55.203125 67.828125 55.855469 67.242188 56.671875 67.242188 L 67.242188 67.242188 C 69.144531 67.242188 70.691406 65.699219 70.691406 63.792969 L 70.691406 56.898438 Z M 29.308594 56.898438 "/>
<path style=" stroke:none;fill-rule:nonzero;fill:rgb(82.352941%,68.627451%,56.862745%);fill-opacity:1;" d="M 20.691406 37.929688 L 18.964844 37.929688 C 18.011719 37.929688 17.242188 37.160156 17.242188 36.207031 L 17.242188 29.308594 C 17.242188 28.359375 18.011719 27.585938 18.964844 27.585938 L 20.691406 27.585938 C 21.640625 27.585938 22.414062 28.359375 22.414062 29.308594 L 22.414062 36.207031 C 22.414062 37.160156 21.640625 37.929688 20.691406 37.929688 Z M 20.691406 37.929688 "/>
<path style=" stroke:none;fill-rule:nonzero;fill:rgb(92.941176%,77.647059%,64.705882%);fill-opacity:1;" d="M 20.691406 32.757812 L 18.964844 32.757812 C 18.011719 32.757812 17.242188 31.988281 17.242188 31.035156 L 17.242188 29.308594 C 17.242188 28.359375 18.011719 27.585938 18.964844 27.585938 L 20.691406 27.585938 C 21.640625 27.585938 22.414062 28.359375 22.414062 29.308594 L 22.414062 31.035156 C 22.414062 31.988281 21.640625 32.757812 20.691406 32.757812 Z M 20.691406 32.757812 "/>
<path style=" stroke:none;fill-rule:nonzero;fill:rgb(82.352941%,68.627451%,56.862745%);fill-opacity:1;" d="M 81.035156 37.929688 L 79.308594 37.929688 C 78.359375 37.929688 77.585938 37.160156 77.585938 36.207031 L 77.585938 29.308594 C 77.585938 28.359375 78.359375 27.585938 79.308594 27.585938 L 81.035156 27.585938 C 81.988281 27.585938 82.757812 28.359375 82.757812 29.308594 L 82.757812 36.207031 C 82.757812 37.160156 81.988281 37.929688 81.035156 37.929688 Z M 81.035156 37.929688 "/>
<path style=" stroke:none;fill-rule:nonzero;fill:rgb(92.941176%,77.647059%,64.705882%);fill-opacity:1;" d="M 81.035156 32.757812 L 79.308594 32.757812 C 78.359375 32.757812 77.585938 31.988281 77.585938 31.035156 L 77.585938 29.308594 C 77.585938 28.359375 78.359375 27.585938 79.308594 27.585938 L 81.035156 27.585938 C 81.988281 27.585938 82.757812 28.359375 82.757812 29.308594 L 82.757812 31.035156 C 82.757812 31.988281 81.988281 32.757812 81.035156 32.757812 Z M 81.035156 32.757812 "/>
<path style=" stroke:none;fill-rule:nonzero;fill:rgb(82.352941%,68.627451%,56.862745%);fill-opacity:1;" d="M 70.691406 58.621094 L 29.308594 58.621094 C 28.359375 58.621094 27.585938 57.847656 27.585938 56.898438 C 27.585938 55.945312 28.359375 55.171875 29.308594 55.171875 L 70.691406 55.171875 C 71.640625 55.171875 72.414062 55.945312 72.414062 56.898438 C 72.414062 57.847656 71.640625 58.621094 70.691406 58.621094 Z M 70.691406 58.621094 "/>
<path style=" stroke:none;fill-rule:nonzero;fill:rgb(74.509804%,60.784314%,50.980392%);fill-opacity:1;" d="M 41.378906 51.722656 L 58.621094 51.722656 L 58.621094 55.171875 L 41.378906 55.171875 Z M 41.378906 51.722656 "/>
<path style=" stroke:none;fill-rule:nonzero;fill:rgb(82.352941%,68.627451%,56.862745%);fill-opacity:1;" d="M 25 58.621094 C 25 61 23.070312 62.929688 20.691406 62.929688 C 18.308594 62.929688 16.378906 61 16.378906 58.621094 C 16.378906 56.238281 18.308594 54.308594 20.691406 54.308594 C 23.070312 54.308594 25 56.238281 25 58.621094 Z M 25 58.621094 "/>
<path style=" stroke:none;fill-rule:nonzero;fill:rgb(82.352941%,68.627451%,56.862745%);fill-opacity:1;" d="M 18.964844 70.691406 C 18.964844 72.59375 17.421875 74.136719 15.515625 74.136719 C 13.613281 74.136719 12.070312 72.59375 12.070312 70.691406 C 12.070312 68.785156 13.613281 67.242188 15.515625 67.242188 C 17.421875 67.242188 18.964844 68.785156 18.964844 70.691406 Z M 18.964844 70.691406 "/>
<path style=" stroke:none;fill-rule:nonzero;fill:rgb(74.509804%,60.784314%,50.980392%);fill-opacity:1;" d="M 22.414062 58.621094 C 22.414062 59.574219 21.640625 60.34375 20.691406 60.34375 C 19.738281 60.34375 18.964844 59.574219 18.964844 58.621094 C 18.964844 57.667969 19.738281 56.898438 20.691406 56.898438 C 21.640625 56.898438 22.414062 57.667969 22.414062 58.621094 Z M 22.414062 58.621094 "/>
<path style=" stroke:none;fill-rule:nonzero;fill:rgb(92.941176%,77.647059%,64.705882%);fill-opacity:1;" d="M 12.070312 79.308594 L 18.964844 79.308594 L 18.964844 84.484375 L 12.070312 84.484375 Z M 12.070312 79.308594 "/>
<path style=" stroke:none;fill-rule:nonzero;fill:rgb(82.352941%,68.627451%,56.862745%);fill-opacity:1;" d="M 18.964844 87.929688 C 18.011719 87.929688 17.242188 87.160156 17.242188 86.207031 L 17.242188 82.757812 C 17.242188 81.808594 16.46875 81.035156 15.515625 81.035156 C 14.566406 81.035156 13.792969 81.808594 13.792969 82.757812 L 13.792969 86.207031 C 13.792969 87.160156 13.023438 87.929688 12.070312 87.929688 C 11.117188 87.929688 10.34375 87.160156 10.34375 86.207031 L 10.34375 82.757812 C 10.34375 79.90625 12.664062 77.585938 15.515625 77.585938 C 18.367188 77.585938 20.6875 79.90625 20.6875 82.757812 L 20.6875 86.207031 C 20.691406 87.160156 19.917969 87.929688 18.964844 87.929688 Z M 18.964844 87.929688 "/>
<path style=" stroke:none;fill-rule:nonzero;fill:rgb(43.137255%,25.490196%,25.490196%);fill-opacity:1;" d="M 53.449219 67.242188 C 53.449219 69.144531 51.90625 70.691406 50 70.691406 C 48.09375 70.691406 46.550781 69.144531 46.550781 67.242188 C 46.550781 65.335938 48.09375 63.792969 50 63.792969 C 51.90625 63.792969 53.449219 65.335938 53.449219 67.242188 Z M 53.449219 67.242188 "/>
<path style=" stroke:none;fill-rule:nonzero;fill:rgb(74.509804%,60.784314%,50.980392%);fill-opacity:1;" d="M 46.550781 96.550781 L 46.550781 91.378906 C 46.550781 90.425781 45.78125 89.65625 44.828125 89.65625 L 41.378906 89.65625 C 40.425781 89.65625 39.65625 90.425781 39.65625 91.378906 L 39.65625 93.101562 L 32.757812 96.550781 L 32.757812 100 L 46.550781 100 C 47.503906 100 48.277344 99.226562 48.277344 98.277344 C 48.277344 97.324219 47.503906 96.550781 46.550781 96.550781 Z M 46.550781 96.550781 "/>
<path style=" stroke:none;fill-rule:nonzero;fill:rgb(82.352941%,68.627451%,56.862745%);fill-opacity:1;" d="M 39.65625 100 L 32.757812 100 C 31.804688 100 31.035156 99.226562 31.035156 98.277344 C 31.035156 97.324219 31.804688 96.550781 32.757812 96.550781 L 39.65625 96.550781 C 40.605469 96.550781 41.378906 97.324219 41.378906 98.277344 C 41.378906 99.226562 40.609375 100 39.65625 100 Z M 39.65625 100 "/>
</g>
</svg>
