<?xml version="1.0" encoding="UTF-8"?>
<svg xmlns="http://www.w3.org/2000/svg" xmlns:xlink="http://www.w3.org/1999/xlink" width="100px" height="150px" viewBox="0 0 100 100" version="1.1">
<g id="surface1">
<path style=" stroke:none;fill-rule:nonzero;fill:rgb(60.784314%,61.568627%,65.098039%);fill-opacity:1;" d="M 70.6875 34.71875 L 89.148438 34.71875 L 89.148438 45.277344 L 70.6875 45.277344 Z M 70.6875 34.71875 "/>
<path style=" stroke:none;fill-rule:nonzero;fill:rgb(22.745098%,21.960784%,22.352941%);fill-opacity:1;" d="M 86.148438 56.425781 L 86.148438 34.71875 L 92.148438 34.71875 L 92.148438 56.425781 Z M 86.148438 56.425781 "/>
<path style=" stroke:none;fill-rule:nonzero;fill:rgb(60.784314%,61.568627%,65.098039%);fill-opacity:1;" d="M 92.945312 63.925781 C 92.945312 61.832031 91.246094 60.132812 89.148438 60.132812 C 87.054688 60.132812 85.355469 61.832031 85.355469 63.925781 C 85.355469 64.402344 85.445312 64.859375 85.605469 65.28125 L 79.164062 65.28125 C 79.101562 64.835938 79.070312 64.386719 79.070312 63.925781 C 79.070312 58.359375 83.582031 53.847656 89.148438 53.847656 C 94.714844 53.847656 99.230469 58.359375 99.230469 63.925781 C 99.230469 64.386719 99.195312 64.835938 99.136719 65.28125 L 92.695312 65.28125 C 92.855469 64.859375 92.945312 64.402344 92.945312 63.925781 Z M 92.945312 63.925781 "/>
<path style=" stroke:none;fill-rule:nonzero;fill:rgb(71.764706%,72.54902%,75.294118%);fill-opacity:1;" d="M 29.3125 45.277344 L 10.851562 45.277344 L 10.851562 34.71875 L 29.3125 34.71875 Z M 29.3125 45.277344 "/>
<path style=" stroke:none;fill-rule:nonzero;fill:rgb(26.666667%,25.882353%,25.882353%);fill-opacity:1;" d="M 7.851562 56.425781 L 7.851562 34.71875 L 13.851562 34.71875 L 13.851562 56.425781 Z M 7.851562 56.425781 "/>
<path style=" stroke:none;fill-rule:nonzero;fill:rgb(71.764706%,72.54902%,75.294118%);fill-opacity:1;" d="M 7.058594 63.925781 C 7.058594 61.832031 8.753906 60.132812 10.851562 60.132812 C 12.945312 60.132812 14.644531 61.832031 14.644531 63.925781 C 14.644531 64.402344 14.558594 64.859375 14.394531 65.28125 L 20.835938 65.28125 C 20.898438 64.835938 20.929688 64.386719 20.929688 63.925781 C 20.929688 58.359375 16.417969 53.847656 10.851562 53.847656 C 5.285156 53.847656 0.769531 58.359375 0.769531 63.925781 C 0.769531 64.386719 0.804688 64.835938 0.863281 65.28125 L 7.304688 65.28125 C 7.144531 64.859375 7.058594 64.402344 7.058594 63.925781 Z M 7.058594 63.925781 "/>
<path style=" stroke:none;fill-rule:nonzero;fill:rgb(92.941176%,93.333333%,94.117647%);fill-opacity:1;" d="M 50 0 C 34.996094 0 22.792969 12.207031 22.792969 27.207031 L 22.792969 43.9375 L 77.207031 43.9375 L 77.207031 27.207031 C 77.207031 12.207031 65.003906 0 50 0 Z M 50 0 "/>
<path style=" stroke:none;fill-rule:nonzero;fill:rgb(86.27451%,87.058824%,88.627451%);fill-opacity:1;" d="M 77.207031 27.207031 C 77.207031 12.207031 65.003906 0 50 0 L 50 43.9375 L 77.207031 43.9375 Z M 77.207031 27.207031 "/>
<path style=" stroke:none;fill-rule:nonzero;fill:rgb(86.27451%,87.058824%,88.627451%);fill-opacity:1;" d="M 77.207031 27.207031 C 77.207031 12.207031 65.003906 0 50 0 L 50 43.9375 L 77.207031 43.9375 Z M 77.207031 27.207031 "/>
<path style=" stroke:none;fill-rule:nonzero;fill:rgb(86.27451%,87.058824%,88.627451%);fill-opacity:1;" d="M 77.207031 27.207031 C 77.207031 12.207031 65.003906 0 50 0 L 50 43.9375 L 77.207031 43.9375 Z M 77.207031 27.207031 "/>
<path style=" stroke:none;fill-rule:nonzero;fill:rgb(26.666667%,25.882353%,25.882353%);fill-opacity:1;" d="M 53.261719 93.476562 L 53.261719 79.703125 L 46.738281 79.703125 L 46.738281 93.476562 L 39.207031 93.476562 L 39.207031 100 L 60.792969 100 L 60.792969 93.476562 Z M 53.261719 93.476562 "/>
<path style=" stroke:none;fill-rule:nonzero;fill:rgb(22.745098%,21.960784%,22.352941%);fill-opacity:1;" d="M 53.261719 93.476562 L 53.261719 79.703125 L 50 79.703125 L 50 100 L 60.792969 100 L 60.792969 93.476562 Z M 53.261719 93.476562 "/>
<path style=" stroke:none;fill-rule:nonzero;fill:rgb(38.039216%,63.529412%,93.72549%);fill-opacity:1;" d="M 50 40.046875 L 22.792969 40.046875 L 22.792969 81.433594 L 77.207031 81.433594 L 77.207031 40.046875 Z M 50 40.046875 "/>
<path style=" stroke:none;fill-rule:nonzero;fill:rgb(32.156863%,54.117647%,81.176471%);fill-opacity:1;" d="M 50 40.046875 L 77.207031 40.046875 L 77.207031 81.433594 L 50 81.433594 Z M 50 40.046875 "/>
<path style=" stroke:none;fill-rule:nonzero;fill:rgb(92.941176%,93.333333%,94.117647%);fill-opacity:1;" d="M 50 44.832031 C 41.890625 44.832031 35.320312 51.40625 35.320312 59.515625 C 38.589844 59.515625 44.117188 59.515625 50 59.515625 C 55.03125 59.515625 60.324219 59.515625 64.679688 59.515625 C 64.679688 51.40625 58.109375 44.832031 50 44.832031 Z M 50 44.832031 "/>
<path style=" stroke:none;fill-rule:nonzero;fill:rgb(86.27451%,87.058824%,88.627451%);fill-opacity:1;" d="M 50 44.832031 L 50 59.515625 C 55.03125 59.515625 60.324219 59.515625 64.679688 59.515625 C 64.679688 51.40625 58.109375 44.832031 50 44.832031 Z M 50 44.832031 "/>
<path style=" stroke:none;fill-rule:nonzero;fill:rgb(76.862745%,23.921569%,17.254902%);fill-opacity:1;" d="M 51.019531 55.835938 L 50.121094 54.582031 L 55.738281 48.96875 L 56.8125 50.042969 Z M 51.019531 55.835938 "/>
<path style=" stroke:none;fill-rule:nonzero;fill:rgb(96.862745%,30.196078%,21.568627%);fill-opacity:1;" d="M 51.730469 55.835938 C 51.730469 56.792969 50.957031 57.566406 50 57.566406 C 49.042969 57.566406 48.269531 56.792969 48.269531 55.835938 C 48.269531 54.882812 49.042969 54.105469 50 54.105469 C 50.957031 54.105469 51.730469 54.882812 51.730469 55.835938 Z M 51.730469 55.835938 "/>
<path style=" stroke:none;fill-rule:nonzero;fill:rgb(76.862745%,23.921569%,17.254902%);fill-opacity:1;" d="M 51.730469 55.835938 C 51.730469 56.792969 50.957031 57.566406 50 57.566406 C 50 56.601562 50 54.996094 50 54.105469 C 50.957031 54.105469 51.730469 54.878906 51.730469 55.835938 Z M 51.730469 55.835938 "/>
<path style=" stroke:none;fill-rule:nonzero;fill:rgb(92.941176%,93.333333%,94.117647%);fill-opacity:1;" d="M 38.300781 71.738281 C 38.300781 73.382812 36.964844 74.71875 35.320312 74.71875 C 33.675781 74.71875 32.339844 73.382812 32.339844 71.738281 C 32.339844 70.09375 33.675781 68.757812 35.320312 68.757812 C 36.964844 68.757812 38.300781 70.09375 38.300781 71.738281 Z M 38.300781 71.738281 "/>
<path style=" stroke:none;fill-rule:nonzero;fill:rgb(86.27451%,87.058824%,88.627451%);fill-opacity:1;" d="M 67.660156 71.738281 C 67.660156 73.382812 66.324219 74.71875 64.679688 74.71875 C 63.035156 74.71875 61.699219 73.382812 61.699219 71.738281 C 61.699219 70.09375 63.035156 68.757812 64.679688 68.757812 C 66.324219 68.757812 67.660156 70.09375 67.660156 71.738281 Z M 67.660156 71.738281 "/>
<path style=" stroke:none;fill-rule:nonzero;fill:rgb(92.941176%,93.333333%,94.117647%);fill-opacity:1;" d="M 52.980469 71.738281 C 52.980469 73.382812 51.644531 74.71875 50 74.71875 C 48.355469 74.71875 47.019531 73.382812 47.019531 71.738281 C 47.019531 70.09375 48.355469 68.757812 50 68.757812 C 51.644531 68.757812 52.980469 70.09375 52.980469 71.738281 Z M 52.980469 71.738281 "/>
<path style=" stroke:none;fill-rule:nonzero;fill:rgb(86.27451%,87.058824%,88.627451%);fill-opacity:1;" d="M 50 68.757812 C 51.644531 68.757812 52.980469 70.09375 52.980469 71.738281 C 52.980469 73.382812 51.644531 74.71875 50 74.71875 C 50 72.679688 50 70.242188 50 68.757812 Z M 50 68.757812 "/>
<path style=" stroke:none;fill-rule:nonzero;fill:rgb(96.862745%,30.196078%,21.568627%);fill-opacity:1;" d="M 59.34375 19.648438 C 59.34375 24.808594 55.160156 28.992188 50 28.992188 C 44.839844 28.992188 40.65625 24.808594 40.65625 19.648438 C 40.65625 14.488281 44.839844 10.304688 50 10.304688 C 55.160156 10.304688 59.34375 14.488281 59.34375 19.648438 Z M 59.34375 19.648438 "/>
<path style=" stroke:none;fill-rule:nonzero;fill:rgb(76.862745%,23.921569%,17.254902%);fill-opacity:1;" d="M 50 10.304688 C 55.160156 10.304688 59.34375 14.488281 59.34375 19.648438 C 59.34375 24.808594 55.160156 28.992188 50 28.992188 C 50 24.640625 50 12.914062 50 10.304688 Z M 50 10.304688 "/>
<path style=" stroke:none;fill-rule:nonzero;fill:rgb(92.941176%,93.333333%,94.117647%);fill-opacity:1;" d="M 55.113281 19.648438 C 55.113281 22.472656 52.824219 24.761719 50 24.761719 C 47.175781 24.761719 44.886719 22.472656 44.886719 19.648438 C 44.886719 16.824219 47.175781 14.535156 50 14.535156 C 52.824219 14.535156 55.113281 16.824219 55.113281 19.648438 Z M 55.113281 19.648438 "/>
<path style=" stroke:none;fill-rule:nonzero;fill:rgb(86.27451%,87.058824%,88.627451%);fill-opacity:1;" d="M 50 14.535156 C 52.824219 14.535156 55.113281 16.824219 55.113281 19.648438 C 55.113281 22.472656 52.824219 24.761719 50 24.761719 C 50 21.46875 50 18.789062 50 14.535156 Z M 50 14.535156 "/>
<path style=" stroke:none;fill-rule:nonzero;fill:rgb(26.666667%,25.882353%,25.882353%);fill-opacity:1;" d="M 51.535156 19.648438 C 51.535156 20.496094 50.847656 21.183594 50 21.183594 C 49.152344 21.183594 48.464844 20.496094 48.464844 19.648438 C 48.464844 18.800781 49.152344 18.113281 50 18.113281 C 50.847656 18.113281 51.535156 18.800781 51.535156 19.648438 Z M 51.535156 19.648438 "/>
<path style=" stroke:none;fill-rule:nonzero;fill:rgb(22.745098%,21.960784%,22.352941%);fill-opacity:1;" d="M 50 18.113281 C 50.847656 18.113281 51.535156 18.800781 51.535156 19.648438 C 51.535156 20.496094 50.847656 21.183594 50 21.183594 C 50 20.292969 50 19.070312 50 18.113281 Z M 50 18.113281 "/>
</g>
</svg>
