<?xml version="1.0" encoding="UTF-8"?>
<svg xmlns="http://www.w3.org/2000/svg" xmlns:xlink="http://www.w3.org/1999/xlink" width="100px" height="150px" viewBox="0 0 100 100" version="1.1">
<g id="surface1">
<path style=" stroke:none;fill-rule:nonzero;fill:rgb(57.647059%,78.039216%,93.72549%);fill-opacity:1;" d="M 59.089844 13.636719 C 59.089844 8.617188 55.019531 4.546875 50 4.546875 C 44.980469 4.546875 40.910156 8.617188 40.910156 13.636719 C 40.910156 17 42.738281 19.9375 45.453125 21.507812 L 45.453125 37.878906 L 54.546875 37.878906 L 54.546875 21.507812 C 57.261719 19.9375 59.089844 17 59.089844 13.636719 Z M 59.089844 13.636719 "/>
<path style=" stroke:none;fill-rule:nonzero;fill:rgb(35.294118%,54.509804%,69.019608%);fill-opacity:1;" d="M 50 4.546875 L 50 37.878906 L 54.546875 37.878906 L 54.546875 21.507812 C 57.261719 19.9375 59.089844 17 59.089844 13.636719 C 59.089844 8.617188 55.019531 4.546875 50 4.546875 Z M 50 4.546875 "/>
<path style=" stroke:none;fill-rule:nonzero;fill:rgb(57.647059%,78.039216%,93.72549%);fill-opacity:1;" d="M 0 46.96875 L 48.484375 46.96875 L 48.484375 71.210938 L 0 71.210938 Z M 0 46.96875 "/>
<path style=" stroke:none;fill-rule:nonzero;fill:rgb(35.294118%,54.509804%,69.019608%);fill-opacity:1;" d="M 51.515625 46.96875 L 100 46.96875 L 100 71.210938 L 51.515625 71.210938 Z M 51.515625 46.96875 "/>
<path style=" stroke:none;fill-rule:nonzero;fill:rgb(57.647059%,78.039216%,93.72549%);fill-opacity:1;" d="M 36.363281 71.210938 L 63.636719 71.210938 L 63.636719 95.453125 L 36.363281 95.453125 Z M 36.363281 71.210938 "/>
<path style=" stroke:none;fill-rule:nonzero;fill:rgb(35.294118%,54.509804%,69.019608%);fill-opacity:1;" d="M 50 71.210938 L 63.636719 71.210938 L 63.636719 95.453125 L 50 95.453125 Z M 50 71.210938 "/>
<path style=" stroke:none;fill-rule:nonzero;fill:rgb(80%,91.372549%,97.647059%);fill-opacity:1;" d="M 9.089844 31.816406 L 90.910156 31.816406 L 90.910156 86.363281 L 9.089844 86.363281 Z M 9.089844 31.816406 "/>
<path style=" stroke:none;fill-rule:nonzero;fill:rgb(57.647059%,78.039216%,93.72549%);fill-opacity:1;" d="M 50 31.816406 L 90.910156 31.816406 L 90.910156 86.363281 L 50 86.363281 Z M 50 31.816406 "/>
<path style=" stroke:none;fill-rule:nonzero;fill:rgb(23.529412%,36.470588%,46.27451%);fill-opacity:1;" d="M 37.878906 53.03125 C 37.878906 56.378906 35.164062 59.089844 31.816406 59.089844 C 28.472656 59.089844 25.757812 56.378906 25.757812 53.03125 C 25.757812 49.683594 28.472656 46.96875 31.816406 46.96875 C 35.164062 46.96875 37.878906 49.683594 37.878906 53.03125 Z M 37.878906 53.03125 "/>
<path style=" stroke:none;fill-rule:nonzero;fill:rgb(11.764706%,18.039216%,23.137255%);fill-opacity:1;" d="M 74.242188 53.03125 C 74.242188 56.378906 71.527344 59.089844 68.183594 59.089844 C 64.835938 59.089844 62.121094 56.378906 62.121094 53.03125 C 62.121094 49.683594 64.835938 46.96875 68.183594 46.96875 C 71.527344 46.96875 74.242188 49.683594 74.242188 53.03125 Z M 74.242188 53.03125 "/>
<path style=" stroke:none;fill-rule:nonzero;fill:rgb(23.529412%,36.470588%,46.27451%);fill-opacity:1;" d="M 36.363281 68.183594 C 36.363281 75.710938 42.46875 81.816406 50 81.816406 C 57.53125 81.816406 63.636719 75.710938 63.636719 68.183594 Z M 36.363281 68.183594 "/>
<path style=" stroke:none;fill-rule:nonzero;fill:rgb(11.764706%,18.039216%,23.137255%);fill-opacity:1;" d="M 50 68.183594 C 50 75.710938 50 77.273438 50 81.816406 C 57.53125 81.816406 63.636719 75.710938 63.636719 68.183594 Z M 50 68.183594 "/>
</g>
</svg>
