<?xml version="1.0" encoding="UTF-8"?>
<svg xmlns="http://www.w3.org/2000/svg" xmlns:xlink="http://www.w3.org/1999/xlink" width="100px" height="100px" viewBox="0 0 100 100" version="1.1">
<g id="surface1">
<path style=" stroke:none;fill-rule:nonzero;fill:rgb(92.941176%,92.941176%,92.941176%);fill-opacity:1;" d="M 0 100 L 6.894531 75 C 2.414062 67.242188 0 58.621094 0 49.65625 C 0 22.414062 22.414062 0 49.828125 0 C 77.242188 0 100 22.414062 100 49.65625 C 100 76.894531 77.242188 100 49.828125 100 C 41.207031 100 32.929688 97.242188 25.515625 93.101562 Z M 0 100 "/>
<path style=" stroke:none;fill-rule:nonzero;fill:rgb(33.333333%,80.392157%,42.352941%);fill-opacity:1;" d="M 26.894531 84.136719 L 28.449219 85 C 34.828125 88.964844 42.242188 91.378906 50 91.378906 C 72.585938 91.378906 91.378906 72.585938 91.378906 49.65625 C 91.378906 26.722656 72.585938 8.621094 49.828125 8.621094 C 27.070312 8.621094 8.621094 26.894531 8.621094 49.65625 C 8.621094 57.585938 10.863281 65.34375 15 71.894531 L 16.035156 73.449219 L 12.070312 87.929688 Z M 26.894531 84.136719 "/>
<path style=" stroke:none;fill-rule:nonzero;fill:rgb(99.607843%,99.607843%,99.607843%);fill-opacity:1;" d="M 36.550781 26.550781 L 33.277344 26.378906 C 32.242188 26.378906 31.207031 26.722656 30.515625 27.414062 C 28.964844 28.792969 26.378906 31.378906 25.691406 34.828125 C 24.484375 40 26.378906 46.207031 30.863281 52.414062 C 35.34375 58.621094 43.964844 68.621094 59.136719 72.929688 C 63.964844 74.308594 67.757812 73.449219 70.863281 71.550781 C 73.277344 70 74.828125 67.585938 75.34375 65 L 75.863281 62.585938 C 76.035156 61.894531 75.691406 61.035156 75 60.691406 L 64.136719 55.691406 C 63.449219 55.34375 62.585938 55.515625 62.070312 56.207031 L 57.757812 61.722656 C 57.414062 62.070312 56.898438 62.242188 56.378906 62.070312 C 53.449219 61.035156 43.621094 56.898438 38.277344 46.550781 C 38.101562 46.035156 38.101562 45.515625 38.449219 45.171875 L 42.585938 40.515625 C 42.929688 40 43.105469 39.3125 42.929688 38.792969 L 37.929688 27.585938 C 37.757812 27.070312 37.242188 26.550781 36.550781 26.550781 "/>
</g>
</svg>
